<?xml version="1.0" encoding="utf-8"?>
<!-- Generator: Adobe Illustrator 16.0.0, SVG Export Plug-In . SVG Version: 6.00 Build 0)  -->
<!DOCTYPE svg PUBLIC "-//W3C//DTD SVG 1.1//EN" "http://www.w3.org/Graphics/SVG/1.1/DTD/svg11.dtd">
<svg version="1.1" id="Layer_1" xmlns="http://www.w3.org/2000/svg" xmlns:xlink="http://www.w3.org/1999/xlink" x="0px" y="0px"
	 width="100px" height="100px" viewBox="0 0 100 100" enable-background="new 0 0 100 100" xml:space="preserve">
<g>
	<path fill-rule="evenodd" clip-rule="evenodd" fill="#FFFFFF" d="M70.477,26.391c-7.021-2.644-18.645-2.573-25.283,1.104
		c5.99-2.663,16.481-4.036,26.73-0.017c6.632,2.601,13.057,7.37,16.962,13.332c6.364,9.716,6.517,21.181,0.814,30.605
		c-4.136,6.837-11.312,12.777-21.051,15.378c-4.638,1.238-9.677,1.691-14.701,1.258c-5.021-0.434-9.824-1.916-14.249-3.756
		c-11.439-4.759-20.914-16.84-20.541-29.831h-0.33c-0.703,27.71,33.549,42.992,56.797,30.456
		c7.545-4.068,13.313-9.561,16.255-15.969c3.646-7.943,3.329-17.367-0.865-25.495C86.761,35.214,78.977,29.59,70.477,26.391z"/>
	<g>
		<path fill-rule="evenodd" clip-rule="evenodd" fill="#FFFFFF" d="M30.781,8.998c-0.403,2.205,1.68,4.499,3.939,4.784
			c1.956,0.17,3.711-1.1,3.977-3.079c0.169-1.834-1.113-3.477-3.001-3.52c-1.59,0.034-2.885,1.311-2.685,2.938
			c0.217,1.293,1.411,2.218,2.719,1.869c0.959-0.289,1.416-1.086,1.428-2.036c0.011-0.431,0.217,0.067,0.255,0.199
			c0.392,1.507-1.099,2.826-2.508,2.878c-1.828,0.046-3.179-1.577-3.235-3.33c-0.019-1.339,0.638-2.563,1.738-3.312
			c1.555-1.058,4.241-0.993,5.908,0.089c4.31,2.516,5.571,7.401,4.72,12.182c-2.364,13.279-22.548,16.966-24.677,29.113
			c4.802-13.927,24.982-14.234,25.912-30.854c0.151-2.71-0.561-5.486-2.188-8.26C40.436,4.15,31.924,2.754,30.781,8.998z"/>
		<path fill-rule="evenodd" clip-rule="evenodd" fill="#FFFFFF" d="M21.137,45.172c1.737-2.67,5.92-6.535,9.401-8.076
			c1.056-0.467,4.934-2.142,3.692,0.511c-0.289,0.618-0.876,1.299-1.528,2.265c3.715-2.053,11.172,0.208,7.16,1.991
			c9.648,0.06,10.198,18.391-0.037,17.723c-2.485-0.162-4.401-2.506-5.037-4.982c-0.311-2.291,1.023-4.645,3.281-5.549
			c1.74-0.633,4.099,0.807,4.106,3.165c-0.03,1.621-1.063,2.788-2.102,3.008c-1.8,0.38-3.957-1.158-3.325-2.857
			c0.042-0.114,0.989-0.928,1.072-1.04c0.036-0.053,1.666,0.197,1.921,0.793c0.206,0.48,0.154,0.783-0.326,0.989
			c-0.436,0.187-1.457-0.13-1.872-0.241c-0.84,0.748,0.985,2.393,2.507,1.836c0.717-0.263,1.659-1.088,1.684-2.59
			c-0.012-2.147-2.094-3.277-3.667-2.68c-2.999,1.249-3.401,4.653-1.912,6.991c4.325,5.477,10.565,0.725,9.821-4.687
			c-0.144-1.197-0.681-2.303-1.434-3.395C39.784,41.447,27.842,39.228,21.137,45.172z"/>
		<g>
			<circle fill-rule="evenodd" clip-rule="evenodd" fill="#FFFFFF" cx="50.4" cy="11.681" r="1.292"/>
			<circle fill-rule="evenodd" clip-rule="evenodd" fill="#FFFFFF" cx="50.718" cy="15.882" r="1.071"/>
			<circle fill-rule="evenodd" clip-rule="evenodd" fill="#FFFFFF" cx="50.272" cy="19.361" r="0.899"/>
			<circle fill-rule="evenodd" clip-rule="evenodd" fill="#FFFFFF" cx="48.976" cy="22.067" r="0.764"/>
			<circle fill-rule="evenodd" clip-rule="evenodd" fill="#FFFFFF" cx="47.293" cy="24.233" r="0.576"/>
			<circle fill-rule="evenodd" clip-rule="evenodd" fill="#FFFFFF" cx="45.773" cy="25.937" r="0.456"/>
			<circle fill-rule="evenodd" clip-rule="evenodd" fill="#FFFFFF" cx="44.329" cy="27.363" r="0.406"/>
			<circle fill-rule="evenodd" clip-rule="evenodd" fill="#FFFFFF" cx="42.929" cy="28.516" r="0.364"/>
			<circle fill-rule="evenodd" clip-rule="evenodd" fill="#FFFFFF" cx="41.453" cy="29.513" r="0.284"/>
			<circle fill-rule="evenodd" clip-rule="evenodd" fill="#FFFFFF" cx="40.083" cy="30.302" r="0.24"/>
			<circle fill-rule="evenodd" clip-rule="evenodd" fill="#FFFFFF" cx="38.887" cy="31.058" r="0.195"/>
			<circle fill-rule="evenodd" clip-rule="evenodd" fill="#FFFFFF" cx="37.793" cy="31.649" r="0.161"/>
			<circle fill-rule="evenodd" clip-rule="evenodd" fill="#FFFFFF" cx="36.755" cy="32.15" r="0.162"/>
			<circle fill-rule="evenodd" clip-rule="evenodd" fill="#FFFFFF" cx="35.634" cy="32.699" r="0.162"/>
			<circle fill-rule="evenodd" clip-rule="evenodd" fill="#FFFFFF" cx="34.465" cy="33.261" r="0.161"/>
		</g>
		<path fill-rule="evenodd" clip-rule="evenodd" fill="#FFFFFF" d="M26.474,47.287c-1.282,1.428,0.131,2.956,1.073,3.144
			c1.046,0.208,1.72-0.034,2.146-0.445c2.134-2.062-0.939-4.807-3.466-4.783c-3.608,0.035-7.171,4.176-7.24,7.482
			c-0.04-0.493-0.069-2.055,0.528-3.441c0.599-1.387,3.511-5.65,6.86-5.593c2.875,0.049,5.742,1.622,6.415,5.149
			c0.321,1.835-1.217,4.426-3.111,5.292c-2.197,1.004-4.332-0.414-5.156-2.252C23.772,50.167,24.109,48.145,26.474,47.287z"/>
		<g>
			<path fill-rule="evenodd" clip-rule="evenodd" fill="#FFFFFF" d="M33.15,58.262c-0.971-1.297-2.749-0.551-3.414,0.487
				c-1.418,2.425,0.513,5.532,2.987,6.642c4.053,1.686,9.032,0.041,11.404-2.99c4.008-4.748,2.228-11.568-2.735-15.692
				c-3.687-3.224-8.71-4.396-13.62-4.026c1.027-0.17,3.717-0.413,7.438,0.485c3.721,0.899,9.922,4.81,11.102,10.885
				c1.012,5.215-1.647,10.354-7.287,11.933c-3.761,0.944-8.385-0.062-10.081-3.668c-0.751-1.736-0.574-3.964,1.295-4.921
				C31.26,56.922,32.753,57.073,33.15,58.262z"/>
			<path fill-rule="evenodd" clip-rule="evenodd" fill="#FFFFFF" d="M31.347,57.385c-0.775,0.244-1.209,1.074-0.963,1.853
				c0.245,0.776,1.071,1.21,1.852,0.966c0.777-0.243,1.211-1.073,0.965-1.854C32.957,57.574,32.129,57.141,31.347,57.385z"/>
		</g>
		<path fill-rule="evenodd" clip-rule="evenodd" fill="#FFFFFF" d="M44.433,36.152c-3.47,2.801,1.66,6.158,3.831,2.65
			c0.752-1.216,0.588-3.225-0.729-4.629c-5.183-5.522-14.1-0.216-16.299,1.625c2.323-1.592,10.595-6.772,15.992-1.417
			c0.977,0.864,1.533,3.097,0.797,4.2c-1.675,2.513-4.571,1.248-4.454-0.719c0.402-0.961,1.118-0.227,1.676-0.549
			c0.594-0.342,0.536-0.799,0.3-1.11c-0.231-0.306-0.787-0.274-1.136-0.028C44.418,36.167,44.425,36.159,44.433,36.152z"/>
		<path fill-rule="evenodd" clip-rule="evenodd" fill="#FFFFFF" d="M26.606,27.29c0.269-0.083,1.429-5.929-1.342-7.016
			c-2.771-1.086-2.188-1.515-2.463-2.533C21.938,22.978,25.943,22.792,26.606,27.29z"/>
		<path fill-rule="evenodd" clip-rule="evenodd" fill="#FFFFFF" d="M23.492,39.351c2.021-4.052,2.879-7.716,1.627-11.466
			c-1.354-4.06-3.378-4.125-3.827-3.65c-0.804,0.85,0.604,2.811,1.782,4.354C25.834,31.713,24.34,37.061,23.492,39.351z"/>
		<circle fill-rule="evenodd" clip-rule="evenodd" fill="#FFFFFF" cx="38.528" cy="52.527" r="1.786"/>
		<path fill-rule="evenodd" clip-rule="evenodd" fill="#FFFFFF" d="M25.33,37.998c1.336-3.595,2.782-4.747,2.971-9.344
			c0.229-5.588,0.521-10.106,5.103-13.543c-4.941,6.454-0.101,8.083-2.684,10.588c0.799,0.055,1.825-0.504,1.866,0.233
			c0.097,1.748-2.422,4.972-3.847,5.373C31.821,31.878,26.174,36.531,25.33,37.998z"/>
		<path fill-rule="evenodd" clip-rule="evenodd" fill="#FFFFFF" d="M10.763,34.24c0.668,1.155-0.473,2.26-1.474,2.427
			c-2.576,0.587-4.234-2.789-3.806-5.517c0.695,1.47,1.49-0.214,1.479-1.93c3.146,5.003,5.21-3.422,6.363-4.509
			c-1.015,6.667,5.809,2.572,8.423,6.801c-5.31-1.137,0.227,2.854-0.341,9.196c-0.075,0.842-0.632,2.133-1.095,3.015
			c0.462-0.722,2.325-2.714,2.848-5.824c1.108-6.539-0.734-9.406-4.954-12.265c-3.621-2.454-8.372-2.102-11.394,1.658
			c-1.932,2.542-2.666,6.369-0.483,8.821c1.072,1.129,2.816,1.717,4.146,0.611C11.164,36.105,11.534,34.925,10.763,34.24z"/>
		<circle fill-rule="evenodd" clip-rule="evenodd" fill="#FFFFFF" cx="26.744" cy="28.825" r="0.72"/>
		<circle fill-rule="evenodd" clip-rule="evenodd" fill="#FFFFFF" cx="26.746" cy="31.116" r="0.598"/>
		<circle fill-rule="evenodd" clip-rule="evenodd" fill="#FFFFFF" cx="26.481" cy="33.083" r="0.417"/>
		<circle fill-rule="evenodd" clip-rule="evenodd" fill="#FFFFFF" cx="48.495" cy="8.269" r="1.071"/>
		<circle fill-rule="evenodd" clip-rule="evenodd" fill="#FFFFFF" cx="46.231" cy="5.913" r="0.899"/>
		<circle fill-rule="evenodd" clip-rule="evenodd" fill="#FFFFFF" cx="43.867" cy="4.456" r="0.764"/>
		<circle fill-rule="evenodd" clip-rule="evenodd" fill="#FFFFFF" cx="41.615" cy="3.553" r="0.576"/>
		<circle fill-rule="evenodd" clip-rule="evenodd" fill="#FFFFFF" cx="39.663" cy="3.073" r="0.456"/>
		<circle fill-rule="evenodd" clip-rule="evenodd" fill="#FFFFFF" cx="37.935" cy="2.87" r="0.406"/>
		<circle fill-rule="evenodd" clip-rule="evenodd" fill="#FFFFFF" cx="36.47" cy="2.981" r="0.364"/>
		<circle fill-rule="evenodd" clip-rule="evenodd" fill="#FFFFFF" cx="35.158" cy="3.18" r="0.284"/>
		<circle fill-rule="evenodd" clip-rule="evenodd" fill="#FFFFFF" cx="34.11" cy="3.577" r="0.24"/>
		<circle fill-rule="evenodd" clip-rule="evenodd" fill="#FFFFFF" cx="33.199" cy="4.122" r="0.195"/>
		<circle fill-rule="evenodd" clip-rule="evenodd" fill="#FFFFFF" cx="32.553" cy="4.69" r="0.162"/>
		<circle fill-rule="evenodd" clip-rule="evenodd" fill="#FFFFFF" cx="32.069" cy="5.434" r="0.162"/>
	</g>
	<path fill-rule="evenodd" clip-rule="evenodd" fill="#FFFFFF" d="M43.007,29.315c-0.037-0.217,3.639-3.091,5.375-1.539
		s1.83,0.994,2.64,0.827C47.667,31.054,46.383,28.19,43.007,29.315z"/>
	<g>
		<path fill-rule="evenodd" clip-rule="evenodd" fill="#FFFFFF" d="M38.949,25.689c-0.707,2.364-1.792,4.075-3.318,4.927
			c2.314-1.767,3.159-5.342,2.773-8.072c-0.146-1.028-0.457-1.987-0.854-2.81c-0.967-1.688-3.615-2.818-5.08-0.033
			c-0.667,1.268-0.525,2.849,1.139,3.278c0.539,0.14,2.402-0.128,2.947-1.673c-0.435,1.737-2.455,1.898-3.008,1.772
			c-1.261-0.288-2.686-1.974-1.478-3.897c1.203-1.915,3.192-1.921,4.694-0.855C38.73,19.721,39.687,23.22,38.949,25.689z"/>
		<path fill-rule="evenodd" clip-rule="evenodd" fill="#FFFFFF" d="M36.517,21.091c0,0-0.254-0.792-1.076-1.516
			c-1.378-1.212-1.843-3.168-0.413-4.511c-0.345,0.804,0.477,1.345,1.142,1.952s1.265,1.131,1.117,2.007
			c-0.111,0.657-0.435,1.454-0.59,1.811c-0.115-1.546-0.006-2.212-1.163-3.01c0.229,0.279,0.576,0.631,0.715,1.057
			C36.579,19.892,36.517,21.091,36.517,21.091z"/>
	</g>
	<path fill-rule="evenodd" clip-rule="evenodd" fill="#FFFFFF" d="M39.732,26.056c2.246-2.742,3.537-5.39,3.232-8.469
		c-0.329-3.334-1.862-3.735-2.287-3.451c-0.762,0.509-0.027,2.25,0.604,3.632C42.846,20.633,40.777,24.455,39.732,26.056z"/>
	<path fill-rule="evenodd" clip-rule="evenodd" fill="#FFFFFF" d="M34.943,26.844c0.188,0.184,0.39,0.413,0.241,0.721
		c-0.117,0.244-0.443,0.238-0.721,0.136c-1.51-1.022,0.734-2.988,1.905-1.01c0.757,1.087-0.686,3.37-0.861,3.563
		c4.016-4.123-0.71-6.491-1.905-4.198c-0.174,0.332-0.293,0.809-0.109,1.244c0.222,0.525,0.799,0.953,1.48,0.722
		C35.6,27.766,35.609,27.005,34.943,26.844z"/>
	<circle fill-rule="evenodd" clip-rule="evenodd" fill="#FFFFFF" cx="34.835" cy="27.362" r="0.627"/>
	<path fill-rule="evenodd" clip-rule="evenodd" fill="#FFFFFF" d="M39.64,25.758c1.227-1.839,1.363-3.607,1.107-4.716
		c-0.407-1.768-1.72-1.137-0.973,0.527c0.113,0.252,0.236,0.583,0.344,1.045C40.496,24.258,39.64,25.758,39.64,25.758z"/>
	<circle fill-rule="evenodd" clip-rule="evenodd" fill="#FFFFFF" cx="39.354" cy="26.43" r="0.351"/>
	<circle fill-rule="evenodd" clip-rule="evenodd" fill="#FFFFFF" cx="19.029" cy="53.844" r="0.941"/>
	<path fill-rule="evenodd" clip-rule="evenodd" fill="#FFFFFF" d="M18.065,40.878c0.259,0.137,0.547,0.318,0.484,0.695
		c-0.048,0.298-0.398,0.395-0.728,0.372c-1.936-0.617-0.155-3.425,1.719-1.679c1.152,0.924,0.328,3.818,0.201,4.08
		c2.994-5.671-2.802-6.716-3.359-3.889c-0.08,0.409-0.058,0.957,0.275,1.363c0.402,0.492,1.153,0.768,1.81,0.306
		C19.058,41.657,18.828,40.841,18.065,40.878z"/>
	<path fill-rule="evenodd" clip-rule="evenodd" fill="#FFFFFF" d="M21.662,51.142c-0.225-0.009-0.485,0.001-0.59,0.273
		c-0.082,0.216,0.112,0.415,0.339,0.526c1.52,0.338,1.423-2.207-0.49-1.774c-1.119,0.168-1.689,2.401-1.706,2.624
		c0.204-4.909,4.443-3.366,3.723-1.279c-0.104,0.302-0.33,0.655-0.708,0.797c-0.455,0.17-1.06,0.063-1.315-0.496
		C20.705,51.275,21.171,50.823,21.662,51.142z"/>
	<path fill-rule="evenodd" clip-rule="evenodd" fill="#FFFFFF" d="M69.412,26.376c-6.633-2.566-17.613-2.497-23.885,1.072
		c5.658-2.584,15.569-3.918,25.253-0.017c6.265,2.524,12.334,7.154,16.023,12.942c6.013,9.432,6.156,20.561,0.77,29.708
		C71.726,96.998,18.383,89.8,19.207,54.087l-0.049,0.376C18.188,91.769,76.146,97.881,89.632,67.69
		c3.444-7.71,3.146-16.859-0.816-24.748C84.797,34.941,77.442,29.482,69.412,26.376z"/>
</g>
</svg>
