<?xml version="1.0" encoding="utf-8"?>
<!-- Generator: Adobe Illustrator 16.0.0, SVG Export Plug-In . SVG Version: 6.00 Build 0)  -->
<!DOCTYPE svg PUBLIC "-//W3C//DTD SVG 1.1//EN" "http://www.w3.org/Graphics/SVG/1.1/DTD/svg11.dtd">
<svg version="1.1" id="Layer_1" xmlns="http://www.w3.org/2000/svg" xmlns:xlink="http://www.w3.org/1999/xlink" x="0px" y="0px"
	 width="100px" height="100px" viewBox="0 0 100 100" enable-background="new 0 0 100 100" xml:space="preserve">
<g opacity="0.7">
	<path fill-rule="evenodd" clip-rule="evenodd" fill="#FFFFFF" d="M69.41,87.844c0.156-0.412,0.517-0.615,0.852-0.853
		c1.293-0.896,1.901-2.087,1.851-3.707c-0.076-2.248-0.011-2.251-2.207-2.403c-0.567-0.041-1.19-0.121-1.529-0.564
		c-0.559-0.729-1.177-0.617-1.884-0.397c-1.022,0.317-2.002,0.703-3.063-0.087c-0.448-0.335-1.146-0.063-1.696,0.229
		c-0.594,0.309-1.203,0.585-1.812,0.87c-0.556,0.259-1.139,0.244-1.563-0.196c-0.808-0.85-1.66-0.584-2.537-0.213
		c-0.377,0.16-0.725,0.401-1.104,0.54c-0.542,0.193-1.15,0.32-1.521-0.247c-0.507-0.769-1.114-0.754-1.839-0.434
		c-0.442,0.196-0.908,0.349-1.331,0.574c-1.137,0.605-2.189,0.697-3.136-0.356c-0.473-0.523-1.055-0.502-1.634-0.208
		c-0.733,0.368-1.458,0.751-2.168,1.162c-0.877,0.507-1.803,0.368-2.353-0.307c-0.889-1.088-1.584-0.615-2.323,0.015
		c-0.827,0.707-1.697,1.218-2.837,0.978c-0.772-0.82-1.381-0.823-2.091,0.182c-0.739,1.045-1.248,1.013-1.916,0.153
		c-0.845-1.09-1.285-1.061-2.064,0.131c-0.11,0.167-0.069,0.467-0.677,0.502c0.396-0.844,0.848-1.452,1.563-1.795
		c0.681-0.323,1.034,0.259,1.314,0.726c0.539,0.88,1.009,0.837,1.541,0.01c0.175-0.28,0.459-0.491,0.641-0.768
		c0.357-0.552,0.717-0.555,1.165-0.109c0.903,0.895,1.829,0.567,2.739,0.011c0.255-0.156,0.475-0.361,0.707-0.551
		c0.846-0.695,1.618-0.969,2.441,0.109c0.473,0.623,1.191,0.686,1.916,0.291c0.517-0.279,1.121-0.407,1.533-0.88
		c1.191-0.543,2.305-0.748,3.315,0.426c0.535,0.615,1.248,0.272,1.868,0.021c0.654-0.262,1.284-0.594,1.944-0.841
		c0.715-0.27,1.407-0.258,1.892,0.455c0.381,0.569,0.85,0.471,1.364,0.24c0.546-0.243,1.086-0.494,1.65-0.684
		c0.725-0.244,1.405-0.332,2.021,0.371c0.624,0.714,1.388,0.307,2.056,0c0.677-0.313,1.36-0.587,2.082-0.787
		c0.339-0.095,0.714-0.229,0.977-0.025c1.063,0.837,2.134,0.277,3.176,0.044c0.743-0.164,1.334-0.226,1.887,0.466
		c0.55,0.695,1.42,0.532,2.195,0.521c1.567-0.018,1.773,0.165,1.738,1.69c-0.015,0.926,0.059,1.858-0.203,2.771
		C71.913,86.453,70.835,87.315,69.41,87.844z"/>
	<path fill-rule="evenodd" clip-rule="evenodd" fill="#FFFFFF" d="M29.311,17.504c-3.07,3.361-6.647,6.203-9.729,9.549
		c0.009,0.411-0.22,0.623-0.595,0.71c-3.17,3.081-4.729,6.811-4.707,11.254c0.007,1.701-0.308,3.401-0.478,5.103
		c0.163,0.131,0.175,0.258-0.009,0.383c-0.219,2.812-0.763,5.598-0.645,8.439c0.063,1.478,0.876,2.658,1.439,3.947
		c-1.197-1.198-1.821-2.698-1.867-4.345c-0.085-3.213,0.508-6.384,0.754-9.579c0.105-1.373,0.424-2.729,0.334-4.116
		c-0.174-2.731,0.652-5.281,1.76-7.67c0.837-1.814,2.461-3.172,3.871-4.597c2.928-2.965,5.972-5.816,8.938-8.741
		c0.794-0.787,1.482-1.675,2.232-2.506c0.212-0.24,0.365-0.576,0.889-0.591c-0.492,1.028-1.454,1.592-1.978,2.485
		C29.507,17.366,29.435,17.453,29.311,17.504z"/>
	<path fill-rule="evenodd" clip-rule="evenodd" fill="#FFFFFF" d="M50.428,5.376c0.131-0.018,0.259-0.037,0.386-0.055
		c0.196-0.171,0.372-0.43,0.636-0.415c2.028,0.108,4.055-0.379,6.087-0.026c2.162,0.543,4.315,1.144,6.498,1.614
		c3.212,0.688,5.899,2.283,8.479,4.269c3.639,2.804,6.505,6.184,8.576,10.263c0.088,0.24-0.024,0.284-0.232,0.236
		c-2.67-5.219-6.757-9.116-11.575-12.317c-1.97-1.307-4.278-1.686-6.497-2.305c-1.606-0.444-3.237-0.831-4.869-1.188
		c-2.272-0.495-4.523-0.083-6.752,0.332c-0.933,0.174-1.916,0.087-2.806,0.499c-0.488,0.047-0.969,0.109-1.391,0.39
		c-0.116,0.138-0.255,0.167-0.416,0.076c-3.262,1.009-6.277,2.59-9.345,4.047c-0.255,0.065-0.321-0.055-0.28-0.281
		c2.021-0.961,4.046-1.927,6.072-2.889h-0.005c1.6-1.107,3.341-1.839,5.307-1.937c0.182-0.007,0.372,0.018,0.535-0.098
		c0.134-0.019,0.273-0.037,0.412-0.055C49.608,5.256,50.06,5.62,50.428,5.376z"/>
	<path fill-rule="evenodd" clip-rule="evenodd" fill="#FFFFFF" d="M38.044,76.408c0.52-0.227,0.896-0.143,1.169,0.422
		c0.25,0.525,0.604,1.001,0.921,1.512c1.904-2.152,3.161-2.127,4.129,0.112c-0.853-0.163-0.99-1.529-2.039-1.212
		c-0.7,0.211-1.203,0.698-1.512,1.369c-0.324,0.473-0.633,0.604-0.947-0.011c-0.172-0.331-0.354-0.656-0.546-0.976
		c-0.609-1.017-1.038-1.046-1.824-0.128c-0.954,1.121-0.992,1.15-1.887,0.08c-0.445-0.528-0.841-0.546-1.333-0.187
		c-0.422,0.31-0.889,0.624-1.09,1.108c-0.473,1.158-1.031,0.722-1.624,0.148c-0.186-0.182-0.396-0.345-0.546-0.553
		c-0.429-0.608-0.859-0.514-1.395-0.113c-0.713,0.532-1.512,0.957-2.218,1.497c-0.664,0.509-1.133,0.334-1.771-0.103
		c-1.368-0.939-1.881-2.466-2.792-3.715c-1.557-2.138-2.299-4.69-3.634-6.942c0.785,0.926,1.376,1.953,1.905,3.042
		c1.202,2.48,2.591,4.854,4.377,6.974c0.595,0.707,1.247,0.849,2.023,0.26c0.594-0.448,1.271-0.795,1.821-1.285
		c0.751-0.678,1.403-0.701,2.076,0.05c0.102,0.048,0.165,0.125,0.19,0.232c0.448,0.689,0.859,0.937,1.409,0.048
		c0.285-0.448,0.762-0.772,1.152-1.153c0.015-0.065,0.044-0.099,0.09-0.099c0.052,0,0.077,0.007,0.077,0.024
		c0.754-0.349,1.275,0.026,1.687,0.591c0.354,0.484,0.597,0.669,1.022,0.039C37.215,77.034,37.667,76.75,38.044,76.408z"/>
	<path fill-rule="evenodd" clip-rule="evenodd" fill="#FFFFFF" d="M50.362,94.611c-0.146-0.019-0.291-0.036-0.437-0.055
		c-2.391-0.226-4.779-0.451-7.168-0.682l0.003,0.005c-0.965-0.368-2.058-0.278-2.961-0.857c0.015-0.141,0.154-0.152,0.237-0.218
		c2.561,0.678,5.183,0.867,7.812,1.066c2.222,0.169,4.436,0.372,6.651,0.627c1.565,0.179,3.037-0.179,4.472-0.688
		c2.382-0.845,4.695-1.86,6.865-3.161c0.565-0.342,1.054-0.816,1.573-1.23c0.106,0.039,0.176,0.113,0.22,0.215
		c-0.317,0.359-0.639,0.725-0.959,1.084c-0.131,0.434-0.553,0.344-0.848,0.475c-0.923,0.269-1.57,1.022-2.444,1.384
		c-0.306,0.334-0.633,0.598-1.129,0.426c-0.642-0.054-1.074,0.38-1.573,0.663c-1.421,0.444-2.849,0.893-4.272,1.336
		c-0.041,0.06-0.083,0.084-0.128,0.074c-0.05-0.015-0.08-0.029-0.08-0.045c-0.299,0.012-0.604,0.021-0.902,0.033
		c-0.383,0.247-0.751,0.279-1.085-0.077C52.941,94.677,51.637,94.801,50.362,94.611z"/>
	<path fill-rule="evenodd" clip-rule="evenodd" fill="#FFFFFF" d="M26.793,56.045c-2.875-1.337-5.335-0.012-7.79,1.245
		c-0.563,0.288-0.422,0.918-0.37,1.424c0.071,0.664,0.237,1.319,0.315,1.981c0.079,0.675-0.246,0.907-0.872,0.656
		c-0.94-0.371-2.457-2.083-2.867-3.343c1.015,1.157,1.8,2.287,3.155,2.935c0.124-0.853-0.139-1.584-0.272-2.32
		c-0.158-0.888,0.111-1.569,0.907-1.963c1.848-0.914,3.766-1.61,5.876-1.54c0.771,0.029,1.459,0.255,1.991,0.848L26.793,56.045z"/>
	<path fill-rule="evenodd" clip-rule="evenodd" fill="#FFFFFF" d="M30.876,86.674c0.087,0.086,0.179,0.169,0.27,0.256
		c0.918,0.954,1.981,1.734,3.089,2.447c1.69,1.563,3.897,2.236,5.802,3.428c-0.077,0.072-0.157,0.146-0.237,0.218
		c-4.079-1.816-7.729-4.254-10.792-7.524c-0.601-0.645-0.561-0.862,0.35-2.086C28.769,85.251,30.065,85.818,30.876,86.674z"/>
	<path fill-rule="evenodd" clip-rule="evenodd" fill="#FFFFFF" d="M29.318,59.147c-0.004,0.394,0.226,0.7,0.378,1.034
		c0.113,0.245,0.168,0.488,0.08,0.755c-0.589,1.74-4.246,2.873-5.813,1.795c0.153-0.306,0.38-0.12,0.569-0.072
		c1.832,0.466,3.249-0.281,4.501-1.52c0.397-0.39,0.247-0.798,0.094-1.234c-0.51-1.449-1.37-2.688-2.335-3.86l0.074-0.077
		c1.296,0.591,1.577,1.993,2.381,2.977C29.376,58.977,29.394,59.046,29.318,59.147z"/>
	<path fill-rule="evenodd" clip-rule="evenodd" fill="#FFFFFF" d="M36.927,10.515c0.09,0.095,0.185,0.189,0.28,0.281
		c-1.147,0.645-2.291,1.285-3.438,1.926c-0.187,0.343-0.504,0.47-0.867,0.514c-0.466,0.201-0.567,0.757-0.991,1.042
		C32.043,13.065,32.894,12.431,36.927,10.515z"/>
	<path fill-rule="evenodd" clip-rule="evenodd" fill="#FFFFFF" d="M80.588,70.11c-0.324,0.08-0.624,0.211-0.856,0.467
		c-1.733,0.659-2.837,2.071-3.802,3.511c-0.977,1.457-2.309,1.617-3.796,1.548c-1.158-0.051-2.258-0.452-3.365-0.779
		c-1.289-0.379-1.914-0.132-2.614,1.002c-0.176,0.287-0.317,0.597-0.511,0.867c-0.892,1.227-1.177,1.26-2.407,0.313
		c-1.103-0.846-2.539-0.801-3.886,0.332c-0.986,0.829-1.891,1.103-3.015,0.356c-0.54-0.361-1.144-0.249-1.728-0.036
		c-0.838,0.301-1.638,0.72-2.526,0.885c-0.566,0.102-1.123,0.149-1.647-0.109c-0.848-0.427-1.697-0.775-2.673-0.259
		c0.445-0.703,1.045-0.855,1.69-0.536c1.633,0.813,3.176,0.499,4.713-0.247c0.889-0.434,1.777-0.511,2.659,0.065
		c0.739,0.484,1.402,0.24,2.054-0.259c1.92-1.478,2.806-1.508,4.906-0.223c0.802,0.489,1.577-0.042,1.759-1.274
		c0.095-0.655,0.121-1.311,0.627-2.071c0.086,0.754,0.219,1.234,0.947,0.71c0.582-0.423,1.221-0.121,1.824,0.076
		c1.595,0.518,3.169,1.093,4.913,0.626c0.662-0.174,1.146-0.477,1.523-1.026c1.251-1.851,2.804-3.384,4.884-4.283
		c2.115-0.918,3.205-2.742,4.152-4.658c1.524-3.097,2.513-6.41,3.039-9.79c0.3-1.909-0.071-3.98-0.968-5.772
		c-2.083-4.163-2.695-8.65-2.972-13.185c-0.255-4.213-0.994-8.355-1.613-12.518c-0.136-0.893-0.682-1.719-1.042-2.579
		c0.077-0.08,0.157-0.161,0.232-0.236c0.223,0.368,0.448,0.739,0.671,1.111c0.339,0.229,0.448,0.554,0.39,0.946
		c0.567,4.076,1.457,8.09,1.701,12.23c0.265,4.571,0.681,9.182,2.713,13.436c1.274,2.666,1.646,5.47,1.006,8.381
		c0.167,0.924,0.003,1.759-0.671,2.454c-0.713,1.872-1.217,3.821-2.105,5.63C83.811,67.223,82.652,69.047,80.588,70.11z"/>
	<path fill-rule="evenodd" clip-rule="evenodd" fill="#FFFFFF" d="M59.11,62.065c0.496,0.244,0.746,0.899,1.516,0.729
		c0.641-0.143,0.691-0.335,0.196-0.882c0.822,0.063,1.598,0.729,2.215-0.139c-0.088-0.4-0.715-0.211-0.787-0.87
		c1.187,0.893,1.981-0.003,2.885-0.44c0.48,0.189,0.517,0.564,0.422,0.994c-0.021,0.065-0.063,0.124-0.112,0.171
		c-0.106,0.099-0.252,0.131-0.368,0.211c0.168,0.063,0.306-0.105,0.474-0.051c0.378,0.339,0.262,0.655-0.044,0.962
		c-0.725,0.335-1.34-0.674-2.156-0.168c0.605,0.85,1.661,1.013,2.316,1.705c0.021,0.112-0.011,0.203-0.095,0.28
		c-1.122,0.065-1.82-0.772-2.655-1.293c-0.637-0.4-1.209-0.495-1.807-0.033c1.563,1.432,3.357,2.307,5.612,2.189
		c-0.957,0.933-0.182,1.832-0.167,2.698c0.012,0.404,0.365,0.815-0.189,1.314c-0.196-1.008-0.363-1.9-0.55-2.789
		c-0.113-0.535-0.324-0.907-1.001-0.973c-1.349-0.128-2.444-0.87-3.468-1.704c-0.775-0.631-1.603-0.889-2.676-0.451
		c1.536,1.588,3.054,3.08,5.326,3.685c-1.025,0.299-1.186,0.208-3.189-1.158c-0.987-0.677-1.748-1.613-2.906-2.476
		c0.947,2.961,3.598,4.702,4.37,7.746c-0.797-0.769-0.998-1.628-1.456-2.331c-0.875-1.348-1.989-2.517-2.893-3.835
		c-0.386-0.567-0.812-0.08-1.238-0.248c1.333,2.564,3.751,4.36,4.69,7.125c-1.718-2.685-3.984-4.961-5.608-7.711
		c-0.349-0.594-0.699-1.242-1.354-1.595l0.018,0.018c0.063-0.24,0.063-0.645,0.434-0.226c0.416,0.467,0.795,0.969,1.247,1.432
		c-0.704-1.577-1.527-3.114-1.512-4.899c0.003-0.214,0-0.459,0.323-0.553c0.518,1.605,0.146,3.646,2.178,4.636
		c-0.317-0.939-0.35-1.796-0.007-2.644c0.692,0.152,0.542,0.813,0.758,1.252c-0.32,1.261,0.637,0.922,1.264,1.013
		c-0.004-0.003-0.726-0.454-0.726-0.454C58.57,62.047,58.826,62.015,59.11,62.065z"/>
	<path fill-rule="evenodd" clip-rule="evenodd" fill="#FFFFFF" d="M50.811,51.285c1.153-2.444,3.354-2.671,5.787-2.718
		c-0.291,0.35-0.743,0.364-0.831,0.743c-0.983,0.55-2.068,0.929-2.819,1.621c0.923-0.649,1.924-1.436,3.285-1.392
		c3.241-0.149,6.229,0.634,8.949,2.422c-0.025,0.143-0.112,0.222-0.252,0.251c-3.666-2.272-7.477-2.071-11.385-0.721
		c-0.568,0.196-0.877,0.638-1.347,0.899c-0.816-0.527-0.889-0.853-0.339-1.559c0.47-0.601,1.144-0.925,1.619-1.238
		c-1.907,1.089-2.1,1.402-1.755,3.056c-1.536,0.062-2.345,1.144-3.146,2.239c-0.2,0.069-0.295-0.051-0.372-0.203
		c-0.021-1.14,0.746-1.723,1.61-2.192c0.363-0.197,0.782-0.263,0.769-0.798C50.618,51.536,50.704,51.405,50.811,51.285z"/>
	<path fill-rule="evenodd" clip-rule="evenodd" fill="#FFFFFF" d="M48.304,54.606c0.092,0.095,0.182,0.189,0.273,0.283
		c-0.648,1.061-1.283,2.121-0.241,3.402c-0.077-1.107-0.059-2.134,0.663-2.986c0.624,0.44,0.255,1.096,0.356,1.649
		c-0.306,0.048-0.371,0.019-0.491-0.2c0.419,1.566,0.517,3.26,1.813,4.465c0.667,0.117,0.546,0.604,0.5,1.061
		c-0.328,0.761,0.598,1.402,0.212,2.17c-0.067,0.088-0.153,0.132-0.263,0.132c-0.532-0.31-0.612-0.922-0.827-1.398
		c-0.666-1.472-2.025-2.535-2.276-3.938c0.208,1.435,1.623,2.477,2.258,3.97c0.16,0.372,0.396,0.707,0.44,1.122
		c-0.024,0.109-0.09,0.186-0.189,0.237c-2.297-2.91-3.762-6.167-4.089-9.933c-0.124,0.321-0.249,0.638-0.409,1.049
		c-0.306-2.473,1.945-4.123,4.775-4.406c-0.011,0.171-0.02,0.342-0.033,0.517c-0.852,0.43-1.85,0.547-2.572,1.282
		c-0.642,0.651-1.049,1.344-0.82,2.378C47.776,55.229,47.805,54.632,48.304,54.606z"/>
	<path fill-rule="evenodd" clip-rule="evenodd" fill="#FFFFFF" d="M49.189,57.167c0.127-0.641,0.015-1.257-0.19-1.861
		c0.314-0.543,0.507-1.217,1.384-1.314c-0.779,1.227-0.838,1.438-0.764,3.125c0.386-0.806,0.746-1.628,1.441-2.215
		c0.048-0.055,0.096-0.073,0.149-0.063c0.052,0.019,0.077,0.033,0.077,0.048c-0.123,0.769-0.838,1.231-1.017,1.967
		c-0.294,1.224,0,2.371,0.535,3.456c0.81,1.632,1.669,3.237,2.503,4.859c0.096,0.276,0.193,0.553-0.135,0.757
		c-0.302,0-0.477-0.204-0.598-0.438c-0.539-1.041-1.049-2.102-1.569-3.157c-0.201-0.284,0.251-0.874-0.434-0.926
		C49.582,60.164,49.008,58.787,49.189,57.167z"/>
	<path fill-rule="evenodd" clip-rule="evenodd" fill="#FFFFFF" d="M54.412,62.729c0.003,0.753,0.531,1.282,0.878,1.868
		c1.489,2.517,2.829,5.109,4.159,7.71c0.16,0.313,0.404,0.63,0.259,1.034c-0.44-0.065-0.313-0.571-0.609-0.739
		c-0.483-0.364-0.594-0.986-0.968-1.424c-0.069-0.087-0.128-0.179-0.176-0.272c-1.117-2.255-2.37-4.437-3.648-6.597
		c-0.798-1.347-1.33-2.797-1.828-4.269c-0.078-0.495-0.42-1.063,0.346-1.336c0.35,1.424,0.666,2.854,1.605,4.042L54.412,62.729z"/>
	<path fill-rule="evenodd" clip-rule="evenodd" fill="#FFFFFF" d="M53.068,65.864c0.295-0.16,0.203-0.452,0.24-0.695
		c0.732,2.141,1.53,4.257,2.313,6.413c-0.801-1.144-1.569-2.313-2.415-3.424c-0.44-0.583-0.583-1.358-1.565-1.624
		c-0.506-0.139-0.747-1.274-1.108-1.959l0.077-0.063c0.146-0.065,0.292-0.022,0.357,0.098c0.258,0.464,0.183-0.148,0.305-0.091
		l-0.014,0.016c0.635-0.139,0.816,0.382,1.035,0.775c0.393,0.71,0.772,1.432,1.158,2.127C53.291,66.935,52.777,66.494,53.068,65.864
		z"/>
	<path fill-rule="evenodd" clip-rule="evenodd" fill="#FFFFFF" d="M65.375,61.625c0.024-0.408,0.048-0.816-0.24-1.162
		c0.262-1.198-0.422-2.146-1.034-2.983c-0.415-0.564-0.311-0.947-0.24-1.639c1.165,1.122,1.369,2.539,1.981,3.736
		c0.175,0.109,0.342,0.223,0.217,0.467c0.19,0.677-0.315,1.493,0.416,2.058c-0.775,0.099,0.335,1.042-0.538,1.188
		c-0.19,0.029,0,0.611,0.098,0.925c0.055,0.171,0.208,0.313,0.316,0.47c-0.283,0.146-0.557,0.189-0.779-0.116
		c-0.003-0.103-0.007-0.208-0.012-0.313c-0.309-0.48-0.403-0.99-0.163-1.533c0.153-0.298,0.31-0.597,0.018-0.907
		C65.324,61.767,65.31,61.704,65.375,61.625z"/>
	<path fill-rule="evenodd" clip-rule="evenodd" fill="#FFFFFF" d="M64.93,52.213c0.084-0.083,0.169-0.167,0.252-0.251
		c1.278,0.699,2.561,1.034,3.967,0.266c0.32-0.175,0.728-0.4,1.164-0.255c0.104,0.266,0.569,0.288,0.467,0.688
		c-0.262,0.598-1.228,0.059-1.364,0.853c-0.603-0.127-1.366,0.929-1.764-0.343c-0.394,0.623-0.82,1.126-0.826,1.891
		C66.628,53.78,66.237,52.677,64.93,52.213z"/>
	<path fill-rule="evenodd" clip-rule="evenodd" fill="#FFFFFF" d="M52.824,58.704c-0.466,0.454-0.08,0.928-0.029,1.398
		c-0.189,0.179,0.109,0.607-0.335,0.658c-0.627-0.878-1.01-1.835-0.867-2.694c-0.036-0.394-0.211-0.189-0.077-0.259
		c0.045-0.021,0.077,0.008,0.07,0.084c-0.037,0.426,0.146,0.874-0.124,1.278c-0.298-0.32-0.182-0.747-0.276-1.129
		c-0.16,0.153,0.003,0.521-0.314,0.517c-0.2-0.004-0.273-0.215-0.276-0.418c-0.029-1.231,0.503-2.192,1.458-3.1
		c0.182,0.662-0.409,0.893-0.504,1.304c-0.051,0.243-0.498,0.51-0.051,0.732c0.197,0.098,0.475,0.331,0.758-0.059
		c0.189-0.255,0.616-0.335,1.092-0.571C53.065,57.272,52.78,57.961,52.824,58.704z"/>
	<path fill-rule="evenodd" clip-rule="evenodd" fill="#FFFFFF" d="M51.462,59.17c0.021-0.547,0.051-1.093,0.073-1.64
		c-0.124,1.231,0.692,2.146,1.053,3.205c0.938,1.985,2.228,3.81,2.712,6.002c-0.054,0.227-0.075,0.485-0.414,0.456
		C53.633,64.563,52.358,61.944,51.462,59.17z"/>
	<path fill-rule="evenodd" clip-rule="evenodd" fill="#FFFFFF" d="M59.11,62.065c-0.163,0.277-0.47,0.152-0.7,0.247
		c-0.443,0.183-0.654,0.008-0.669-0.451c-0.46-0.339-0.285-0.983-0.648-1.369c-0.073-0.547-0.059-1.151,0.571-1.257
		c0.645-0.105,0.813,0.499,0.947,1.013C58.771,60.855,58.942,61.461,59.11,62.065z"/>
	<path fill-rule="evenodd" clip-rule="evenodd" fill="#FFFFFF" d="M70.779,52.661c-0.306-0.127-0.841-0.098-0.467-0.688
		c1.221-0.214,1.658,0.725,2.146,1.512c0.382,0.615,0.196,1.217-0.34,1.683c-0.749,0.652-1.572,0.906-2.52,0.434
		c0.496-0.288-0.28-0.619,0.029-0.91c0.342-1.093,1.206-0.245,1.248-0.103c0.537,1.723,0.974,0.183,1.214-0.08
		c0.387-0.422,0.087-0.976-0.255-1.286C71.563,52.975,71.482,52.151,70.779,52.661z"/>
	<path fill-rule="evenodd" clip-rule="evenodd" fill="#FFFFFF" d="M55.549,54.581c0.024-0.434,0.109-0.849,0.491-0.966
		c0.444-0.138,0.677,0.273,0.775,0.612c0.204,0.699,0.364,1.421,0.471,2.142c0.084,0.546-0.317,0.375-0.572,0.27
		C55.774,56.249,55.763,55.335,55.549,54.581z"/>
	<path fill-rule="evenodd" clip-rule="evenodd" fill="#FFFFFF" d="M54.886,67.193c0.072-0.153,0.146-0.303,0.218-0.456
		c0.707,0.227,0.686,0.98,1.053,1.457c0.718,0.926,1.541,1.774,2.065,2.842l-0.015-0.019c0.218,0.299,0.401,0.627,0.524,0.969
		c0.109,0.313,0.313,0.725-0.288,0.813c-0.346-1.788-1.81-2.826-2.814-4.171C55.285,68.174,54.987,67.747,54.886,67.193z"/>
	<path fill-rule="evenodd" clip-rule="evenodd" fill="#FFFFFF" d="M69.629,54.69c-0.088,0.299,0.918,0.637-0.029,0.91
		c-1.165-0.179-1.519,0.612-1.792,1.501c-0.489-0.099-0.24-0.434-0.222-0.695c0.418-0.7,0.68-1.517,1.476-1.928
		C69.166,54.425,69.513,54.541,69.629,54.69z"/>
	<path fill-rule="evenodd" clip-rule="evenodd" fill="#FFFFFF" d="M51.724,52.65c-0.698-1.042-0.08-2.542,1.333-3.154
		c0.434-0.189,0.912-0.287,1.424-0.276c-0.702,0.47-1.397,0.947-2.104,1.413c-0.791,0.517-1.01,1.081-0.179,1.759
		C52.037,52.479,51.884,52.563,51.724,52.65z"/>
	<path fill-rule="evenodd" clip-rule="evenodd" fill="#FFFFFF" d="M56.232,49.54c-1.572,0.331-2.807,1.337-4.218,2.025
		c1.182-0.878,2.142-2.084,3.752-2.255C55.92,49.387,56.077,49.464,56.232,49.54z"/>
	<path fill-rule="evenodd" clip-rule="evenodd" fill="#FFFFFF" d="M67.586,56.406c0.105,0.222-0.021,0.517,0.222,0.695
		c-0.276,1.165-0.742,2.214-1.749,2.942c-0.071-0.153-0.146-0.31-0.217-0.467c0.912-0.422,1.049-1.351,1.387-2.145
		C67.371,57.102,67.47,56.748,67.586,56.406z"/>
	<path fill-rule="evenodd" clip-rule="evenodd" fill="#FFFFFF" d="M51.287,54.887c-0.072,0.003-0.149,0.007-0.227,0.015
		c-0.116-0.179-0.772,0.028-0.371-0.503c0.219-0.295,0.508-0.543,0.758-0.819c0.276-0.306,0.605-0.152,0.793,0.021
		c0.293,0.273-0.09,0.445-0.246,0.608C51.771,54.442,51.648,54.792,51.287,54.887z"/>
	<path fill-rule="evenodd" clip-rule="evenodd" fill="#FFFFFF" d="M67.63,89.633c-0.074-0.074-0.146-0.143-0.22-0.215
		c0.681-0.521,1.147-1.313,2.018-1.589C68.987,88.587,68.316,89.118,67.63,89.633z"/>
	<path fill-rule="evenodd" clip-rule="evenodd" fill="#FFFFFF" d="M66.504,72.109c0.003-0.524-0.404-1.073,0.039-1.711
		C66.962,71.051,66.727,71.585,66.504,72.109z"/>
	<path fill-rule="evenodd" clip-rule="evenodd" fill="#FFFFFF" d="M57.741,61.861c0.167,0.233,0.335,0.474,0.669,0.451
		c0.285,0.216,0.754,0.065,0.938,0.478c-1.265,0.386-1.708,0.277-1.948-0.459C57.29,62.007,57.385,61.844,57.741,61.861z"/>
	<path fill-rule="evenodd" clip-rule="evenodd" fill="#FFFFFF" d="M65.375,61.625c0.019,0.062,0.033,0.123,0.039,0.188
		c-0.509,0.875-0.757,0.005-1.307-0.12C64.653,61.337,65.019,61.738,65.375,61.625z"/>
	<path fill-rule="evenodd" clip-rule="evenodd" fill="#FFFFFF" d="M58.862,50.076c-1.234,0.014-2.439,0.371-3.679,0.454
		C56.342,49.923,57.552,49.697,58.862,50.076z"/>
	<path fill-rule="evenodd" clip-rule="evenodd" fill="#FFFFFF" d="M51.271,64.52c0.057,0.271,0.11,0.543,0.172,0.853
		c-0.444-0.189-0.404-0.747-0.834-0.859c-0.321-1.3-1.268-2.251-1.886-3.384c-0.466-0.845-0.896-1.686-0.947-2.688
		C48.708,60.608,50.289,62.39,51.271,64.52z"/>
	<path fill-rule="evenodd" clip-rule="evenodd" fill="#FFFFFF" d="M49.189,57.167c0.232,1.486,0.633,2.921,1.384,4.238
		c-0.029,0.441-0.211,0.296-0.335,0.066c-0.808-1.552-1.696-3.085-1.361-5.092C49.008,56.708,49.094,56.938,49.189,57.167z"/>
</g>
</svg>
