<?xml version="1.0" encoding="utf-8"?>
<!-- Generator: Adobe Illustrator 16.0.0, SVG Export Plug-In . SVG Version: 6.00 Build 0)  -->
<!DOCTYPE svg PUBLIC "-//W3C//DTD SVG 1.1//EN" "http://www.w3.org/Graphics/SVG/1.1/DTD/svg11.dtd">
<svg version="1.1" id="Layer_1" xmlns="http://www.w3.org/2000/svg" xmlns:xlink="http://www.w3.org/1999/xlink" x="0px" y="0px"
	 width="100px" height="100px" viewBox="0 0 100 100" enable-background="new 0 0 100 100" xml:space="preserve">
<g opacity="0.7">
	<path fill-rule="evenodd" clip-rule="evenodd" fill="#FFFFFF" d="M24.982,75.519c0.425-0.664,0.326-1.193-0.335-1.657
		c-0.287-0.2-0.486-0.431-0.778,0.13c0.328-1.075-0.681-1.438-0.822-2.162c-0.053-0.118-0.012-0.216,0.06-0.311
		c0.711-0.563,1.3-1.246,1.866-1.95c0.098-0.194,0.064-0.404,0.084-0.608c0.025-0.249-0.013-0.612,0.307-0.618
		c0.307-0.003,0.456,0.333,0.486,0.623c0.039,0.387,0.01,0.783,0.392,1.034c0.123,0.191,0.082,0.366-0.054,0.532
		c-0.164,0.177-0.517,0.128-0.529,0.448c-0.098,0.086,0.027,0.046,0.03,0.018c0.025-0.269,0.292-0.221,0.456-0.31
		c0.542-0.016,0.708,0.243,0.473,0.72c-0.113,0.232-0.269,0.437-0.246,0.713c0.003,0.072-0.002,0.141-0.015,0.213
		c-0.067,0.328-0.259,0.607-0.372,0.919c-0.048,0.138-0.056,0.254,0.153,0.22c0.377,0.129,0.343,0.417,0.256,0.697
		c-0.095,0.301-0.138,0.599-0.103,0.911c-0.021,0.168-0.136,0.306-0.182,0.463c-0.054,0.194,0.043,0.128,0.131,0.067
		c0.202-0.225,0.389-0.463,0.632-0.646c0.061-0.043,0.125-0.068,0.199-0.079c0.159,0.014,0.271,0.098,0.348,0.23
		c0.322,0.164,0.461,0.405,0.602,0.773c0.2,0.524,0.583,1.041,1.134,1.334c0.092,0.049,0.246,0.069,0.22,0.173
		c-0.187,0.808,0.589,1.127,0.896,1.668c0.151,0.269-0.103,0.698,0.338,0.808c0.591,0.295-0.013,0.764,0.168,1.12
		c0.072,0.191,0.187,0.358,0.31,0.519c0.087,0.121,0.159,0.246,0.213,0.385c0.066,0.222,0.146,0.448-0.035,0.654
		c-0.37,0.18-0.397-0.303-0.658-0.335c-0.233-0.57-0.704-0.948-1.14-1.39c-0.243,0.09-0.199,0.354-0.23,0.571
		c-0.095,0.675-0.269,1.284-1.026,1.515c-0.092,0.026-0.192,0.113-0.236,0.2c-0.865,1.746-2.539,2.818-3.66,4.362
		c-0.515,0.707-1.359,1.175-1.566,2.121c-0.164,0.093-0.297,0.024-0.425-0.078c-0.121-0.126-0.148-0.297-0.087-0.437
		c0.256-0.591,0.127-1.17-0.011-1.755c-0.004-0.276-0.021-0.559,0.246-0.747c0.432,0.024,0.348,0.417,0.445,0.619
		c0.107-0.246-0.407-0.579-0.039-0.771c0.351-0.185,0.484,0.275,0.717,0.549c0.138-0.406-0.066-1.182,0.781-0.747
		c0.062-0.331-0.139-0.852,0.013-0.854c0.609-0.01,0.742-0.79,0.993-0.771c0.615,0.049,0.481-0.279,0.507-0.594
		c0.015-0.156,0.061-0.398,0.207-0.382c1.08,0.126,0.394-0.58,0.455-0.935c-0.002-0.075-0.007-0.202,0.044-0.222
		c0.883-0.349,1.313-1.178,1.866-1.795c-0.386,0.192-0.583,0.636-0.888,0.978c-0.197,0.224-0.325,0.576-0.74,0.425
		c-0.245-0.296-0.054-0.526,0.116-0.759c0.35-0.479,0.786-0.877,1.216-1.278c-0.479,0.198-0.737,0.602-1.027,0.999
		c-0.184,0.253-0.284,0.727-0.791,0.556c-0.284-0.723,0.328-1.086,0.653-1.549c0.151-0.219,0.407-0.385,0.678-0.617
		c-0.563,0.46-1.032,0.906-1.326,1.502c-0.111,0.228-0.267,0.313-0.505,0.185c-0.533-0.865-0.553-1.871-0.806-2.816
		c-0.187-0.688,0.041-1.333,0.112-1.993C25.191,76.006,25.218,75.74,24.982,75.519z"/>
	<path fill-rule="evenodd" clip-rule="evenodd" fill="#FFFFFF" d="M66.39,64.069c0.502,0.336,0.609,0.96,1.051,1.421
		c0.661-0.67,1.059-1.482,1.381-2.332c0.487-1.3,0.754-1.346,1.706-0.287c0.706,0.786,1.371,1.593,1.535,2.86
		c0.568-0.968,0.615-1.877,0.783-2.746c0.063-0.313,0.073-0.651,0.437-0.771c0.373-0.125,0.644,0.097,0.904,0.333
		c0.841,0.753,1.349,1.71,1.712,2.969c0.209-0.85,0.065-1.518,0.144-2.171c0.029-0.258,0.086-0.517,0.143-0.77
		c0.036-0.148,0.065-0.338,0.241-0.377c0.22-0.046,0.307,0.141,0.409,0.298c0.64,1.011,1.279,2.019,2.012,3.163
		c0.215-1.2,0.41-2.289,0.615-3.373c0.147-0.8,0.271-1.605,0.485-2.386c0.18-0.661,0.368-0.638,0.855-0.162
		c1.726,1.675,2.877,3.701,3.783,5.893c0.128,0.305,0.323,0.574,0.687,0.551c0.395-0.025,0.645-0.249,0.819-0.63
		c0.808-1.797,0.967-3.739,1.325-5.64c0.466-2.467,0.892-4.945,1.394-7.405c0.203-1.011,0.271-2.02,0.291-3.039
		c0.087-0.589-0.322-1.222,0.148-1.777c0.005-1.574,0.005-3.151,0.005-4.728c0.396-0.027,0.098,0.39,0.307,0.479
		c-0.061,2.496-0.041,4.997-0.214,7.482c-0.107,1.501-0.471,2.989-0.814,4.465c-0.563,2.447-0.808,4.948-1.306,7.408
		c-0.204,1.006-0.461,1.986-0.859,2.929c-0.222,0.529-0.666,0.688-1.193,0.74c-0.523,0.05-0.676-0.342-0.849-0.679
		c-0.509-1.001-1.005-2.007-1.492-3.019c-0.552-1.157-1.509-1.979-2.467-3.013c-0.615,2.263-1.064,4.438-1.454,6.682
		c-0.681-1.271-1.454-2.443-2.37-3.651c-0.379,1.135,0.051,2.296-0.563,3.341c-0.396-0.401-0.477-0.896-0.64-1.34
		c-0.303-0.843-0.845-1.496-1.51-2.067c-0.37-0.315-0.575-0.279-0.676,0.244c-0.17,0.869-0.385,1.732-0.6,2.593
		c-0.061,0.243-0.112,0.599-0.404,0.611c-0.276,0.01-0.282-0.355-0.339-0.561c-0.317-1.116-0.932-2.03-1.756-2.834
		c-0.378-0.366-0.573-0.338-0.788,0.142c-0.419,0.932-0.926,1.812-1.531,2.639c-0.322,0.435-0.491,0.366-0.664-0.092
		C66.888,64.98,66.417,64.633,66.39,64.069z"/>
	<path fill-rule="evenodd" clip-rule="evenodd" fill="#FFFFFF" d="M89.562,43.442c-0.102-0.159-0.204-0.317-0.307-0.479
		c-0.112-2.427-0.747-4.749-1.551-7.019c-0.702-1.971-1.52-3.904-2.529-5.737c-2.565-4.654-5.831-8.701-10.07-11.993
		c-4.316-3.351-8.842-6.341-13.701-8.822c-2.979-1.518-6.176-1.886-9.475-1.388c-3.267,0.497-6.395,1.505-9.513,2.558
		c-0.269,0.09-0.512,0.253-0.765,0.384c-0.287-0.033-0.525,0.256-0.845,0.033c5.511-2.017,10.968-4.311,17.08-3.174
		c0.257,0.104,0.507,0.212,0.788,0.184c1.439,0.064,2.689,0.597,3.784,1.513c0.154,0.085,0.303,0.172,0.457,0.259
		c0.475-0.064,0.727,0.246,0.961,0.586c0.117,0.264,0.487,0.063,0.609,0.325c2.048,1.313,4.199,2.455,6.18,3.874
		c2.637,1.892,5.299,3.768,7.644,6.01c2.458,2.358,4.531,5.062,6.247,8.023c1.71,2.952,3.199,6.005,4.085,9.311
		C89.128,39.702,89.613,41.533,89.562,43.442z"/>
	<path fill-rule="evenodd" clip-rule="evenodd" fill="#FFFFFF" d="M82.139,75.725c-0.583,0.988-1.455,1.651-2.498,2.056
		c-3.149,1.216-6.164,2.752-9.395,3.769c-1.747,0.551-3.426,1.303-5.121,2.005c-2.473,1.023-5.054,1.709-7.627,2.397
		c-2.623,0.701-5.293,1.227-7.912,1.966c-2.13,0.604-4.357,0.95-6.519,0.362c-2.659-0.725-4.637-2.476-5.997-4.869
		c-0.889-1.56-1.846-3.071-2.835-4.645c-0.24,0.41-0.073,0.756-0.148,1.076c-0.517-0.461-0.553-1.003-0.118-1.849
		c0.484-0.241,0.593,0.207,0.748,0.456c0.926,1.522,1.884,3.027,2.754,4.587c1.246,2.237,3.039,3.873,5.503,4.656
		c1.48,0.471,3.011,0.305,4.525,0.125c2.069-0.245,4.002-1.055,6.037-1.453c3.451-0.677,6.821-1.687,10.17-2.772
		c0.521-0.171,1.023-0.409,1.53-0.614c3.215-1.295,6.456-2.512,9.682-3.763c1.515-0.587,2.969-1.326,4.5-1.88
		c0.692-0.251,1.296-0.69,1.792-1.254c0.189-0.216,0.349-0.466,0.649-0.551C82.011,75.519,82.093,75.6,82.139,75.725z"/>
	<path fill-rule="evenodd" clip-rule="evenodd" fill="#FFFFFF" d="M23.268,71.605c-0.075,0.075-0.146,0.149-0.221,0.224
		c-0.515-0.381-0.312-0.989-0.427-1.482c-0.333-1.428-0.354-2.905-0.804-4.334c-0.645-2.047-1.526-3.942-2.642-5.788
		c-1.326-2.199-2.74-4.4-3.208-7.008c-0.033-0.19-0.217-0.434,0.166-0.477c0.434,0.834,0.768,1.701,1.04,2.605
		c0.801,2.667,2.409,4.902,3.907,7.195c0.325,0.497,0.46,0.008,0.711-0.076c0,0.289,0,0.54,0,0.796
		c0.338,0.075,0.292-0.356,0.563-0.361c0.103,0.315-0.363,0.574-0.095,0.94c0.285,0.071,0.282-0.431,0.579-0.331
		c-0.212,0.725-0.212,0.725,0.157,1.184c0.243-0.318,0.479-0.625,0.754-0.986c0.113,0.343-0.104,0.466-0.192,0.64
		c-0.166,0.339-0.499,0.675-0.013,1.015c0.484,0.338,0.376-0.421,0.742-0.374c-0.082,0.315-0.164,0.635-0.245,0.952
		c0.033,0.063,0.051,0.134,0.053,0.205C24,66.553,24.013,66.98,23.861,67.38c-0.146,0.215-0.12,0.65-0.532,0.527
		c-0.345-0.104-0.302-0.451-0.256-0.732c0.062-0.373,0.182-0.739,0.203-1.121c-0.577,1.577-0.582,1.667-0.182,2.667
		c0.269-0.43,0.614-0.79,0.727-1.29c0.164-0.158,0.098-0.452,0.336-0.565c0.077-0.016,0.148-0.002,0.215,0.039
		c0.133,0.1-0.006,0.355,0.156,0.385c0.458,0.083,0.335,0.364,0.169,0.557c-0.497,0.563-0.507,1.413-1.175,1.882
		c-0.228,0.158-0.241,0.504-0.197,0.798c-0.013,0.265-0.281,0.495-0.107,0.784C23.266,71.404,23.286,71.502,23.268,71.605z"/>
	<path fill-rule="evenodd" clip-rule="evenodd" fill="#FFFFFF" d="M33.487,85.544c-0.021,0.764-0.376,1.455-0.487,2.199
		c-0.004,0.026-0.015,0.049-0.025,0.074c-0.246,0.525-0.34,1.204-0.025,1.567c0.273,0.319,0.839-0.19,1.29-0.293
		c0.118-0.046,0.269-0.078,0.315,0.055c0.075,0.212-0.161,0.189-0.261,0.269c-0.149,0.154-0.328,0.259-0.556,0.359
		c0.282-0.014,0.384-0.23,0.55-0.354c0.331-0.161,0.438,0.14,0.6,0.286c0.033-0.289-0.272-0.84,0.471-0.579
		c0.218,0.088,0.428,0.216,0.655,0.249c0.349,0.049,0.75,0.11,0.617,0.541c-0.092,0.291,0.019,1.066-0.771,0.672
		c-0.062-0.03-0.258,0.043-0.267,0.087c-0.161,1.059-0.999,0.579-1.53,0.614c-0.853,0.057-1.697,0.146-2.517,0.369
		c-0.666,0.182-1.039-0.081-1.134-0.696c-0.095-0.606-0.314-1.2-0.243-1.831c0.235-0.127,0.064-0.324,0.064-0.478
		c-0.005-0.958,0.053-0.993,0.955-0.508c-0.161,0.525,0.233,1.007,0.113,1.526c0.094,0.015,0.194-0.021,0.284,0.044
		c0.087,0.449-0.262,0.731-0.474,1.208c0.247-0.464,0.515-0.772,0.533-1.192c-0.238-0.871-0.084-1.676,0.422-2.417
		c0.481-0.483,0.627-1.075,0.561-1.736c0.161-0.383,0.297-0.764,0.235-1.197c-0.028-0.19-0.046-0.428,0.233-0.496
		C33.75,84.315,33.518,84.953,33.487,85.544z"/>
	<path fill-rule="evenodd" clip-rule="evenodd" fill="#FFFFFF" d="M33.487,85.544c-0.085-0.563,0.01-1.177-0.479-1.617
		c-0.128-0.213-0.054-0.427,0.072-0.584c0.645-0.811,0.476-1.679,0.138-2.511c-0.419-1.026-0.514-2.122-0.796-3.177
		c-0.149-0.558,0.328-1.147,0.043-1.738c0.08-0.691-0.262-1.306-0.366-1.964c-0.013-0.079-0.011-0.156,0-0.235
		c0.094-0.33,0.294-0.543,0.65-0.573c0.074,0.008,0.141,0.037,0.2,0.077c0.138,0.105,0.233,0.248,0.345,0.377
		c0.381,0.051,0.932-0.054,0.515,0.658c-0.064,0.11,0.121,0.425,0.21,0.61c0.248,0.515,0.263,1.024,0.074,1.523
		c-0.205,0.532,0.133,1.032,0.015,1.546c-0.177,0.632-0.348,1.268-0.021,1.905c0.054,0.586,0.136,1.172,0.156,1.761
		c0.023,0.7,0.172,1.383-0.292,2.084C33.62,84.188,33.628,84.919,33.487,85.544z"/>
	<path fill-rule="evenodd" clip-rule="evenodd" fill="#FFFFFF" d="M42.313,68.673c0.37-0.049,0.741-0.072,1.08,0.104
		c0.784,0.402,1.362,0.079,1.852-0.522c0.624-0.773,1.219-1.571,1.845-2.343c0.674-0.823,1.121-0.785,1.654,0.139
		c0.228,0.396,0.517,0.761,0.565,1.37c0.609-0.879,0.938-1.713,1.146-2.606c0.133-0.558,0.281-1.121,0.507-1.646
		c0.471-1.096,1.383-1.213,2.139-0.292c0.813,0.996,1.3,2.138,1.484,3.412c0.054,0.358,0.16,0.712,0.266,1.061
		c0.081,0.269,0.13,0.591,0.479,0.655c0.404,0.077,0.625-0.208,0.819-0.495c0.488-0.712,0.928-1.459,1.568-2.056
		c0.415-0.392,0.834-0.793,1.428-0.905c-0.292,0.645-1.04,0.786-1.449,1.334c-0.449,0.604-0.927,1.189-1.36,1.814
		c-0.659,0.957-1.284,0.865-1.761-0.192c-0.273-0.609-0.322-1.267-0.45-1.904c-0.189-0.929-0.628-1.721-1.207-2.437
		c-0.67-0.828-1.215-0.717-1.701,0.22c-0.499,0.962-0.507,2.083-1.04,3.028c-0.025,0.046-0.035,0.101-0.062,0.146
		c-0.25,0.446-0.388,1.17-0.864,1.206c-0.438,0.033-0.274-0.745-0.521-1.101c-0.043-0.064-0.076-0.139-0.111-0.208
		c-0.536-1.018-0.72-1.062-1.44-0.163c-0.252,0.318-0.818,0.51-0.629,1.095c0.008,0.041,0.017,0.08,0.025,0.118
		c-0.46,0.704-1.108,1.229-1.758,1.736c-0.374,0.294-0.827,0.281-1.268,0.115c-0.294-0.11-0.604-0.154-0.901-0.252
		C42.475,69.011,42.267,68.939,42.313,68.673z"/>
	<path fill-rule="evenodd" clip-rule="evenodd" fill="#FFFFFF" d="M60.277,69.1c0.563-0.059,0.947-0.417,1.321-0.788
		c0.686-0.687,1.438-1.301,2.227-1.858c0.86-0.612,1.219-0.515,1.776,0.37c0.098,0.155,0.185,0.318,0.287,0.47
		c0.763,1.12,1.433,1.157,2.221,0.074c0.36-0.491,0.79-0.903,1.199-1.344c0.431-0.469,0.783-0.39,1.142,0.079
		c0.497,0.65,1.061,1.216,1.868,1.497c0.339,0.118,0.466,0.077,0.533-0.287c0.046-0.278,0.159-0.555,0.298-0.804
		c0.229-0.413,0.525-0.9,0.988-0.934c0.444-0.031,0.393,0.599,0.624,0.892c0.015,0.021,0.025,0.046,0.034,0.068
		c0.861,1.61,1.092,1.631,2.08,0.089c0.373-0.581,0.609-0.57,1.008-0.03c0.609,0.813,1.097,1.716,1.885,2.401
		c0.358,0.315,0.666,0.514,1.132,0.419c0.092,0.088,0.117,0.198,0.103,0.318c-0.364,0.57-0.759,0.185-1.061-0.025
		c-0.783-0.541-1.403-1.252-1.926-2.051c-0.582-0.891-0.594-0.883-1.218-0.069c-0.732,0.958-1.183,0.952-1.951-0.016
		c-0.209-0.269-0.379-0.564-0.537-0.867c-0.225-0.45-0.446-0.343-0.665,0.005c-0.145,0.226-0.2,0.484-0.288,0.732
		c-0.239,0.684-0.614,0.862-1.274,0.575c-0.675-0.294-1.32-0.665-1.781-1.262c-0.322-0.425-0.604-0.391-0.958-0.038
		c-0.394,0.392-0.726,0.829-1.085,1.247c-0.716,0.837-1.284,0.898-2.164,0.245c-0.344-0.256-0.585-0.594-0.81-0.954
		c-0.478-0.771-0.697-0.816-1.414-0.233c-0.767,0.63-1.581,1.206-2.288,1.915c-0.404,0.404-0.896,0.785-1.521,0.327
		C60.071,69.134,60.118,69.043,60.277,69.1z"/>
	<path fill-rule="evenodd" clip-rule="evenodd" fill="#FFFFFF" d="M24.965,81.257c0.269,0.098,0.085,0.217,0.018,0.336
		c-0.78,1.436-1.559,2.868-2.339,4.306c-0.125,0.23-0.236,0.464-0.064,0.721c-0.274,0.217-0.028,0.521-0.136,0.767
		c-0.322,0.355-0.363,0.794-0.366,1.243c0,0.209,0.048,0.456-0.2,0.545c-0.236,0.089-0.378-0.092-0.512-0.266
		c-0.123-0.16-0.167-0.548-0.486-0.282c-0.287,0.239-0.279,0.597-0.018,0.838c0.691,0.633,1.229,1.451,2.197,1.773
		c-0.185-0.609-0.868-1.041-0.632-1.784c0.107,0.046,0.218,0.095,0.325,0.141c0.287,0.707,0.527,1.449,1.507,1.454
		c0.192,0.003,0.477,0.136,0.381,0.387c-0.086,0.23-0.151,0.571-0.561,0.542c-1.095-0.073-2.107-0.307-2.811-1.259
		c-0.233-0.314-0.504-0.602-0.783-0.878c-0.548-0.545-0.546-1.134,0.002-1.696c0.253-0.259,0.791-0.27,0.727-0.81
		c0.762,0.277,0.768-0.448,0.845-0.78c0.128-0.549,0.517-0.887,0.757-1.334c0.253-0.479,0.489-0.965,0.75-1.441
		C24.025,82.934,24.499,82.097,24.965,81.257z"/>
	<path fill-rule="evenodd" clip-rule="evenodd" fill="#FFFFFF" d="M34.887,15.079c-1.149,0.76-2.391,1.415-3.428,2.306
		c-2.022,1.733-3.907,3.62-5.65,5.644c-2.01,2.333-4.124,4.578-5.77,7.204c-0.164,0.264-0.172,0.692-0.596,0.766
		c-0.021-0.538,0.328-0.913,0.594-1.318c1.81-2.734,4.055-5.115,6.198-7.578c1.541-1.774,3.205-3.438,5.022-4.933
		c1.106-0.909,2.36-1.615,3.612-2.309C34.948,14.928,34.954,14.999,34.887,15.079z"/>
	<path fill-rule="evenodd" clip-rule="evenodd" fill="#FFFFFF" d="M82.139,75.725c-0.052-0.051-0.103-0.103-0.153-0.155
		c-0.062-0.129-0.036-0.259,0.031-0.373c0.803-1.446,1.305-3.009,1.792-4.578c0.138-0.451,0.374-0.853,0.649-1.233
		c-0.446,0.417-0.722,0.401-1.08-0.197c-0.788-1.323-1.639-2.614-2.288-4.017c-0.031-0.064-0.031-0.149-0.124-0.172
		c-0.041,0.118-0.015,0.248-0.056,0.372c-0.062,0.143-0.103,0.312-0.317,0.263c-0.175-0.765-0.093-1.569-0.354-2.321
		c-0.041-0.115-0.133-0.257,0.066-0.315c0.153-0.046,0.235,0.066,0.297,0.189c0.251,0.489,0.585,0.927,0.788,1.449
		c0.626,1.615,1.675,2.989,2.499,4.546c0.296-0.384,0.496-0.691,0.748-0.949c0.148-0.15,0.348-0.42,0.588-0.243
		c0.189,0.136,0.032,0.387-0.025,0.584c-0.286,1.087-0.896,2.042-1.234,3.128C83.536,73.101,83.245,74.613,82.139,75.725z"/>
	<path fill-rule="evenodd" clip-rule="evenodd" fill="#FFFFFF" d="M19.453,30.986c-0.184,1.147-0.793,2.14-1.172,3.217
		c-0.812,2.317-1.418,4.662-1.748,7.109c-0.371,2.737-0.678,5.474-0.888,8.226c-0.077,0.069-0.167,0.204-0.225,0.192
		c-0.226-0.051-0.134-0.243-0.108-0.382c0.213-1.182,0.282-2.383,0.387-3.579c0.261-2.99,0.668-5.961,1.38-8.88
		c0.476-1.958,1.32-3.793,2.109-5.645C19.236,31.129,19.3,31.006,19.453,30.986z"/>
	<path fill-rule="evenodd" clip-rule="evenodd" fill="#FFFFFF" d="M31.108,88.182c-0.248-0.085-0.619,0.45-0.752-0.254
		c-0.016,0.444-0.18,0.81,0.182,1.094c0.11,0.09,0.076,0.255-0.075,0.31c-0.158,0.059-0.189-0.139-0.294-0.198
		c-0.042-1.319-0.131-2.641,0.136-3.951c0.243-0.404,0.351-0.94,0.963-0.98c0.345,0.379,0.466,0.813,0.234,1.281
		c-0.066,0.135,0,0.11,0.037,0.195c0.383,0.853-0.057,1.651-0.221,2.47C31.309,88.207,31.188,88.212,31.108,88.182z"/>
	<path fill-rule="evenodd" clip-rule="evenodd" fill="#FFFFFF" d="M60.277,69.1c-0.062,0.044-0.117,0.085-0.179,0.126
		c-0.62,0.119-0.671-0.45-0.871-0.778c-0.497-0.807-0.665-0.876-1.402-0.243c-0.595,0.51-1.205,1.001-1.769,1.546
		c-0.667,0.649-1.054,0.592-1.704-0.09c-0.638-0.665-0.912-1.515-1.294-2.311c-0.214-0.451-0.479-0.805-1.038-0.802
		c-0.072-0.028-0.123-0.079-0.159-0.148c0.663-0.652,0.855-0.622,1.332,0.184c0.501,0.853,0.803,1.81,1.42,2.609
		c0.42,0.545,0.744,0.586,1.234,0.079c0.67-0.694,1.424-1.311,2.233-1.841c0.701-0.458,1.059-0.34,1.424,0.405
		C59.725,68.283,59.944,68.724,60.277,69.1z"/>
	<path fill-rule="evenodd" clip-rule="evenodd" fill="#FFFFFF" d="M59.315,64.552c1.592-0.065,1.72,0.045,1.95,1.674
		c0.686-0.448,0.967-1.168,1.387-1.777c0.282-0.408,0.523-0.847,0.799-1.257c0.539-0.786,1.075-0.913,1.854-0.391
		c0.476,0.316,0.917,0.696,1.096,1.279c-0.522-0.221-0.758-0.764-1.224-1.067c-0.615-0.407-1.049-0.313-1.438,0.279
		c-0.604,0.914-1.197,1.83-1.828,2.723c-0.163,0.231-0.292,0.625-0.69,0.515c-0.38-0.106-0.363-0.474-0.368-0.785
		c-0.012-0.663-0.349-0.919-0.989-0.887C59.647,64.869,59.284,65.021,59.315,64.552z"/>
	<path fill-rule="evenodd" clip-rule="evenodd" fill="#FFFFFF" d="M46.55,67.387c0.381-0.432,0.683-0.242,0.908,0.151
		c0.249,0.43,0.466,0.878,0.663,1.334c0.187,0.428,0.407,0.459,0.776,0.191c0.808-0.585,1.55-1.239,2.213-1.98
		c0.228-0.256,0.443-0.52,0.75-0.684c0.029,0.027,0.06,0.059,0.087,0.088c0.116,0.266-0.033,0.463-0.194,0.631
		c-0.791,0.832-1.571,1.686-2.542,2.319c-0.699,0.462-1.026,0.38-1.438-0.374c-0.339-0.616-0.572-1.302-1.229-1.682L46.55,67.387z"
		/>
	<path fill-rule="evenodd" clip-rule="evenodd" fill="#FFFFFF" d="M30.61,82.214c0.292-0.09,0.337,0.327,0.604,0.298
		c0.395-0.412,0.85-0.317,1.303-0.136c0.358,0.144,0.233,0.479,0.253,0.75c0.041,0.518-0.144,0.703-0.635,0.423
		c-0.141-0.08-0.287-0.124-0.448-0.114c-0.1,0.029-0.2,0.063-0.279,0.134c-0.167,0.153-0.308,0.453-0.556,0.344
		c-0.338-0.149-0.102-0.434-0.056-0.672c0.016-0.089-0.123-0.155-0.159-0.253C30.543,82.731,30.919,82.46,30.61,82.214z"/>
	<path fill-rule="evenodd" clip-rule="evenodd" fill="#FFFFFF" d="M34.887,15.079c-0.005-0.075-0.013-0.146-0.018-0.218
		c1.566-1.226,3.269-2.207,5.146-2.959c0.007,0.354-0.313,0.317-0.4,0.499c-1.362,0.476-2.549,1.268-3.732,2.069
		C35.561,14.687,35.22,14.876,34.887,15.079z"/>
	<path fill-rule="evenodd" clip-rule="evenodd" fill="#FFFFFF" d="M30.638,82.987c0.208,0.161,0.378,0,0.568-0.072
		c0.033,0.359-0.481,0.475-0.379,0.855c0.405,0.085,0.292-0.681,0.771-0.453c0.274,0.445,0.134,0.743-0.328,0.927
		c-0.322,0.312-0.642,0.626-0.964,0.938C30.358,84.441,30.251,83.676,30.638,82.987z"/>
	<path fill-rule="evenodd" clip-rule="evenodd" fill="#FFFFFF" d="M80.593,65.634c0.051-0.105,0.107-0.21,0.164-0.314
		c0.302,0.044,0.322,0.299,0.385,0.52c0.312,1.162,0.347,2.362,0.449,3.553c0.021,0.279,0.005,0.609-0.338,0.712
		c-0.23,0.069-0.292-0.146-0.343-0.327c0-0.121-0.005-0.241-0.01-0.362c0.07-1.013-0.026-2.016-0.23-3.008
		C80.619,66.151,80.541,65.9,80.593,65.634z"/>
	<path fill-rule="evenodd" clip-rule="evenodd" fill="#FFFFFF" d="M16.133,52.74c-0.248,0.092-0.115,0.314-0.166,0.477
		c-0.481-0.972-0.734-1.992-0.681-3.224c0.515,0.78,0.215,1.656,0.679,2.301C16.021,52.443,16.078,52.592,16.133,52.74z"/>
	<path fill-rule="evenodd" clip-rule="evenodd" fill="#FFFFFF" d="M35.358,89.128c-0.061,0.115-0.381-0.212-0.294,0.189
		c0.054,0.24,0.01,0.503,0.01,0.767c-0.479,0.021-0.348-0.631-0.771-0.604c-0.09,0.03-0.118,0.003-0.085-0.085
		c0.095-0.069,0.189-0.138,0.284-0.207c-0.089-0.033-0.176-0.063-0.264-0.096C34.618,88.857,34.995,88.821,35.358,89.128z"/>
	<path fill-rule="evenodd" clip-rule="evenodd" fill="#FFFFFF" d="M24.395,66.921c-0.069-0.002-0.139-0.002-0.21-0.002
		c0.148-0.308-0.212-0.507-0.168-0.794c0.01-0.062,0.017-0.124,0.025-0.187c0.34,0.134,0.34,0.134,1.142-0.515
		c0.138,0.287-0.141,0.415-0.228,0.606c-0.082,0.188-0.305,0.402-0.13,0.566c0.473,0.442,0.661,1.129,1.247,1.456
		c0.115,0.064,0.135,0.09,0.123,0.197c-0.062,0.425-0.016,0.793,0.435,1.021c0.123,0.062-0.038,0.225-0.075,0.341
		c-0.225,0.066,0.072,0.502-0.319,0.447c-0.63,0.151-0.794-0.294-0.647-0.693c0.158-0.43-0.123-0.581-0.231-0.957
		c-0.22,0.502,0.108,0.978-0.235,1.339c-0.019-0.019-0.044-0.033-0.051-0.057c-0.008-0.021,0.005-0.046,0.007-0.072
		c-0.428,0.41-0.835,0.843-1.357,1.14c-0.258-0.01-0.387-0.201-0.53-0.376c0.128-0.456,0.11-1.019,0.83-1.004
		c0.177,0.006,0.197-0.218,0.263-0.351c0.138-0.281,0.174-0.615,0.338-0.87C24.944,67.648,24.829,67.268,24.395,66.921z"/>
	<path fill-rule="evenodd" clip-rule="evenodd" fill="#FFFFFF" d="M76.927,52.469c-0.343-0.402-0.343-0.738-0.23-1.102
		c0.277-0.88,0.702-1.695,1.219-2.45c0.563-0.821,2.283-0.786,3.015,0.049c0.461,0.52,0.759,1.106,0.794,1.833
		c0.072,1.26,0.303,2.504,0.493,3.758c-0.683-0.867-0.631-1.939-0.836-2.936c-0.093-0.458-0.076-0.939-0.139-1.405
		c-0.117-0.86-0.681-1.367-1.469-1.549c-0.769-0.177-1.438,0.094-1.895,0.786C77.301,50.333,76.896,51.271,76.927,52.469z"/>
	<path fill-rule="evenodd" clip-rule="evenodd" fill="#FFFFFF" d="M42.313,68.673c0.103,0.09,0.203,0.177,0.305,0.264
		c-0.198,0.273-0.499,0.269-0.783,0.271c-1.073,0.01-2.142,0.059-3.218-0.083c-1.311-0.169-2.524,0.356-3.758,0.697
		c-0.425,0.118-0.819,0.355-1.285,0.33c-0.149-0.028-0.238-0.121-0.274-0.267c1.539-0.847,3.228-1.318,4.944-1.321
		C39.593,68.563,40.958,68.583,42.313,68.673z"/>
	<path fill-rule="evenodd" clip-rule="evenodd" fill="#FFFFFF" d="M33.3,69.886c0.059,0.062,0.118,0.123,0.179,0.183
		c-0.066,0.561-0.084,1.114-0.474,1.602c-0.167,0.21-0.46,0.753,0.325,0.542c0.284-0.076,0.399,0.111,0.269,0.362
		c-0.149,0.288-0.282,0.624-0.694,0.647c-0.3,0.049-0.512,0.228-0.679,0.472c-0.637-0.636-0.394-1.384-0.26-2.113
		c0.056-0.305,0.164-0.599,0.332-0.862c0.125-0.218,0.392-0.307,0.497-0.545C32.964,70.078,33.131,69.98,33.3,69.886z"/>
	<path fill-rule="evenodd" clip-rule="evenodd" fill="#FFFFFF" d="M32.796,70.173c0.015,0.22-0.052,0.401-0.233,0.535
		c-0.935,0.469-0.929,0.466-0.743,1.405c0.118,0.578,0.13,1.183,0.387,1.729c0.289,0.655,0.565,1.313,0.461,2.056
		c-0.865-1.417-1.04-3.089-1.672-4.594c-0.115-0.272-0.049-0.617-0.067-0.931C31.634,71.061,32.174,70.234,32.796,70.173z"/>
	<path fill-rule="evenodd" clip-rule="evenodd" fill="#FFFFFF" d="M81.273,54.197c-1.572,0.281-3-0.09-3.731-0.955
		C78.657,54.097,80.08,53.67,81.273,54.197z"/>
	<path fill-rule="evenodd" clip-rule="evenodd" fill="#FFFFFF" d="M26.214,72.023c0.233-0.199,0.45-0.423,0.699-0.597
		c0.256-0.179,0.192,0.118,0.264,0.213c-0.069,0.527-0.609,0.913-0.456,1.55c0.468-0.229,0.376-0.948,1.039-1.046
		c-0.559,0.756-0.745,1.599-0.999,2.414c-0.072,0.235-0.038,0.414,0.226,0.492c-0.194,0.232-0.389,0.463-0.581,0.693
		c-0.267-0.149-0.351-0.354-0.187-0.628c-0.259-0.197-0.326-0.393-0.139-0.716c0.143-0.252,0.45-0.587-0.005-0.868
		c-0.358-0.472,0.404-0.827,0.136-1.29C26.212,72.169,26.214,72.099,26.214,72.023z"/>
	<path fill-rule="evenodd" clip-rule="evenodd" fill="#FFFFFF" d="M26.667,82.668c-0.353-0.341,0.067-0.451,0.195-0.647
		c0.566-0.333,0.771-1.025,1.341-1.353c0.259-0.148,0.438-0.442,0.829-0.448c0.034,0.602-0.614,0.718-0.819,1.163
		c-0.167,0.356-0.642,0.646-0.873,1.055c-0.172,0.304-0.241,0.155-0.433,0.004C26.578,82.181,26.708,82.544,26.667,82.668z"/>
	<path fill-rule="evenodd" clip-rule="evenodd" fill="#FFFFFF" d="M23.68,70.672c0.425-0.215,0.471-0.85,1.085-0.903
		c0.317-0.028-0.018-0.489,0.263-0.709c0.2,0.214,0.059,0.471,0.093,0.688c-0.586,0.649-1.078,1.395-1.854,1.857
		c-0.044-0.043-0.087-0.089-0.131-0.136C23.104,70.923,23.135,70.877,23.68,70.672z"/>
	<path fill-rule="evenodd" clip-rule="evenodd" fill="#FFFFFF" d="M26.378,81.563c-0.154-0.168-0.305-0.339-0.456-0.509
		c0.576-0.491,0.837-1.26,1.49-1.688c0.063-0.04,0.099-0.12,0.161-0.166c0.164-0.127,0.355-0.305,0.535-0.079
		c0.171,0.213-0.092,0.315-0.208,0.423c-0.425,0.404-0.991,0.657-1.262,1.226C26.517,81.024,26.33,81.254,26.378,81.563z"/>
	<path fill-rule="evenodd" clip-rule="evenodd" fill="#FFFFFF" d="M25.098,71.387c0.064,0.705-0.512,0.923-0.719,1.358
		c-0.082,0.169-0.215,0.085-0.308-0.023c-0.12-0.138-0.117-0.279,0.01-0.415C24.384,71.989,24.66,71.643,25.098,71.387z"/>
	<path fill-rule="evenodd" clip-rule="evenodd" fill="#FFFFFF" d="M30.599,79.951c0.551-0.44,0.546,0.282,0.779,0.434
		c0.219,0.145-0.169,0.273-0.305,0.391c-0.136,0.118-0.292,0.213-0.438,0.314c-0.09-0.158-0.589-0.209-0.134-0.515
		C30.758,80.407,30.794,80.195,30.599,79.951z"/>
	<path fill-rule="evenodd" clip-rule="evenodd" fill="#FFFFFF" d="M26.212,72.241c0.123-0.011,0.394-0.279,0.279,0.148
		c-0.107,0.392-0.392,0.719-0.415,1.142c-0.06,0.141-0.115,0.279-0.203,0.492C25.346,73.238,26.112,72.81,26.212,72.241z"/>
	<path fill-rule="evenodd" clip-rule="evenodd" fill="#FFFFFF" d="M27.249,78.712c-0.133,0.747-0.635,1.048-1.024,1.555
		C26.217,79.532,26.411,79.242,27.249,78.712z"/>
	<path fill-rule="evenodd" clip-rule="evenodd" fill="#FFFFFF" d="M24.942,70.605c-0.162,0.701-0.696,1.105-1.229,1.513
		C24.025,71.54,24.348,70.969,24.942,70.605z"/>
	<path fill-rule="evenodd" clip-rule="evenodd" fill="#FFFFFF" d="M26.22,75.115c0.061,0.208,0.125,0.417,0.187,0.628
		c-0.187,0.125-0.27,0.379-0.633,0.455C25.723,75.732,25.841,75.382,26.22,75.115z"/>
	<path fill-rule="evenodd" clip-rule="evenodd" fill="#FFFFFF" d="M30.945,81.571c0.392-0.246,0.781-0.49,1.303-0.815
		c-0.226,0.69-0.802,0.783-1.142,1.121C31.053,81.773,30.999,81.674,30.945,81.571z"/>
	<path fill-rule="evenodd" clip-rule="evenodd" fill="#FFFFFF" d="M26.042,70.516c0.046,0.12-0.01,0.297,0.182,0.338
		c-0.266,0.172-0.645,0.261-0.509,0.758C25.674,71.174,25.119,70.604,26.042,70.516z"/>
	<path fill-rule="evenodd" clip-rule="evenodd" fill="#FFFFFF" d="M27.015,74.949c0.057-0.419,0.189-0.799,0.638-1.251
		c-0.148,0.594-0.249,1-0.351,1.409C27.207,75.055,27.11,75.004,27.015,74.949z"/>
	<path fill-rule="evenodd" clip-rule="evenodd" fill="#FFFFFF" d="M28.38,81.648c0.172,0.311,0.015,0.497-0.222,0.64
		c-0.037,0.023-0.18-0.034-0.185-0.068C27.926,81.91,28.126,81.764,28.38,81.648z"/>
	<path fill-rule="evenodd" clip-rule="evenodd" fill="#FFFFFF" d="M26.385,78.566c-0.187-0.063-0.317,0.378-0.489,0.09
		c-0.113-0.189,0.069-0.461,0.233-0.494c0.32-0.067,0.169,0.266,0.246,0.414L26.385,78.566z"/>
	<path fill-rule="evenodd" clip-rule="evenodd" fill="#FFFFFF" d="M26.375,78.576c0.113-0.049,0.256-0.168,0.33-0.135
		c0.167,0.074,0.046,0.222-0.02,0.309c-0.162,0.2-0.346,0.379-0.553,0.605c-0.125-0.372,0.253-0.517,0.253-0.789L26.375,78.576z"/>
	<path fill-rule="evenodd" clip-rule="evenodd" fill="#FFFFFF" d="M24.901,72.916c0.264,0.057,0.153,0.259,0.197,0.385
		c0.048,0.13-0.002,0.278-0.179,0.241c-0.148-0.031-0.292-0.134-0.292-0.314C24.625,73.038,24.819,73.017,24.901,72.916z"/>
	<path fill-rule="evenodd" clip-rule="evenodd" fill="#FFFFFF" d="M23.844,67.387c0.036,0.807-0.415,1.348-1.07,1.934
		c0.062-0.491,0.153-0.873-0.181-1.165c-0.062-0.054-0.085-0.215-0.057-0.299c0.235-0.669,0.358-1.36,0.486-2.054
		c0.028-0.148,0.103-0.404,0.361-0.279c0.2,0.098,0.292,0.277,0.208,0.525c-0.198,0.568-0.361,1.142-0.351,1.753
		c0.374,0.095,0.395-0.304,0.618-0.403L23.844,67.387z"/>
	<path fill-rule="evenodd" clip-rule="evenodd" fill="#FFFFFF" d="M24.395,66.921c0.521,0.146,0.809,0.408,0.55,0.999
		c-0.174,0.404-0.299,0.829-0.46,1.239c-0.144,0.363-0.151,0.353-0.633,0.329c-0.077-0.004-0.197,0.08-0.233,0.154
		c-0.12,0.254-0.368,0.446-0.363,0.757c0.046,0.058,0.036,0.098-0.031,0.126c-0.41-0.396-0.048-0.804,0.154-0.993
		c0.368-0.348,0.563-0.729,0.732-1.185c0.118-0.323,0.402-0.586,0.627-0.898C24.166,67.528,24.281,67.224,24.395,66.921z"/>
	<path fill-rule="evenodd" clip-rule="evenodd" fill="#FFFFFF" d="M22.541,64.521c0.73,0.727,0,1.306-0.169,1.92
		C22.32,65.813,22.095,65.176,22.541,64.521z"/>
	<path fill-rule="evenodd" clip-rule="evenodd" fill="#FFFFFF" d="M24.016,66.125c0.182,0.239,0.46,0.456,0.168,0.794
		c-0.117,0.153-0.094,0.407-0.34,0.468l0.013,0.012C23.806,66.962,23.532,66.496,24.016,66.125z"/>
	<path fill-rule="evenodd" clip-rule="evenodd" fill="#FFFFFF" d="M23.224,70.525c0.003-0.043,0.013-0.084,0.031-0.126
		c0.148,0.083,0.351,0.075,0.425,0.272c-0.22,0.24-0.451,0.474-0.543,0.798C22.671,71.109,23.015,70.825,23.224,70.525z"/>
	<path fill-rule="evenodd" clip-rule="evenodd" fill="#FFFFFF" d="M21.991,65.15c-0.326-0.554-0.174-0.851,0.082-1.171
		C22.461,64.38,22.083,64.658,21.991,65.15z"/>
	<path fill-rule="evenodd" clip-rule="evenodd" fill="#FFFFFF" d="M32.207,87.392c-0.312-0.47-0.105-1.181,0.497-1.714
		C33.044,86.156,32.841,86.845,32.207,87.392z"/>
	<path fill-rule="evenodd" clip-rule="evenodd" fill="#FFFFFF" d="M33.543,90.414c0.274-0.057,0.417-0.016,0.482,0.16
		c0.061,0.176-0.023,0.3-0.172,0.39c-0.348,0.216-0.761-0.299-1.122,0.089c-0.025,0.026-0.072-0.298,0.039-0.354
		C33.044,90.56,33.348,90.482,33.543,90.414z"/>
	<path fill-rule="evenodd" clip-rule="evenodd" fill="#FFFFFF" d="M31.562,89.774c0.054-0.014,0.107-0.024,0.164-0.034
		c0.09,0.578-0.407,0.928-0.563,1.413c-0.063,0.206-0.258,0.125-0.366-0.008c-0.092-0.114-0.184-0.398-0.066-0.394
		C31.467,90.784,31.193,90.014,31.562,89.774z"/>
	<path fill-rule="evenodd" clip-rule="evenodd" fill="#FFFFFF" d="M34.304,89.479c-0.123,0.812-0.674,0.499-1.339,0.493
		c0.492-0.366,0.85-0.518,1.254-0.578C34.245,89.423,34.273,89.453,34.304,89.479z"/>
	<path fill-rule="evenodd" clip-rule="evenodd" fill="#FFFFFF" d="M31.648,91.123c-0.095-0.336-0.023-0.559,0.218-0.709
		c0.036-0.024,0.173,0.035,0.179,0.067C32.079,90.764,31.933,90.95,31.648,91.123z"/>
	<path fill-rule="evenodd" clip-rule="evenodd" fill="#FFFFFF" d="M33.113,77.745c-0.133-0.559,0.166-1.027,0.051-1.52
		C33.446,76.564,33.413,77.113,33.113,77.745z"/>
	<path fill-rule="evenodd" clip-rule="evenodd" fill="#FFFFFF" d="M32.867,73.324c0.207,0.104,0.333-0.052,0.477-0.146
		c0.141-0.09,0.282-0.177,0.558-0.349c-0.246,0.451-0.484,0.666-0.745,0.859C33.1,73.536,32.824,73.56,32.867,73.324z"/>
</g>
</svg>
