<?xml version="1.0" encoding="utf-8"?>
<!-- Generator: Adobe Illustrator 16.0.0, SVG Export Plug-In . SVG Version: 6.00 Build 0)  -->
<!DOCTYPE svg PUBLIC "-//W3C//DTD SVG 1.1//EN" "http://www.w3.org/Graphics/SVG/1.1/DTD/svg11.dtd">
<svg version="1.1" id="Layer_1" xmlns="http://www.w3.org/2000/svg" xmlns:xlink="http://www.w3.org/1999/xlink" x="0px" y="0px"
	 width="100px" height="100px" viewBox="0 0 100 100" enable-background="new 0 0 100 100" xml:space="preserve">
<g opacity="0.5">
	<path fill-rule="evenodd" clip-rule="evenodd" fill="#494042" d="M64.004,65.148c0.016,0.532,0.104,1.055,0.21,1.574
		c0.007,0.086,0.007,0.176,0.017,0.261c0.113,1.09,0.113,1.09-0.699,1.778c0.347-0.059,0.659-0.113,1.057-0.183
		c-0.323,0.667-0.616,1.276-0.912,1.886c-0.109,0.002-0.137-0.075-0.158-0.158c-0.002-0.434,0.271-0.781,0.387-1.184
		c-0.218-0.136-0.42,0.027-0.619-0.01c-0.127-0.021-0.243-0.056-0.299-0.181c-0.066-0.146,0.049-0.223,0.131-0.311
		c0.034-0.037,0.075-0.078,0.12-0.097c0.7-0.287,0.775-0.807,0.647-1.488c-0.308-1.643-0.408-3.318-0.696-4.967
		c-0.044-0.261-0.208-0.608,0.073-0.776c0.288-0.17,0.476,0.19,0.705,0.32c0.028,0.018,0.053,0.047,0.082,0.065
		c0.227,0.151,0.432,0.545,0.658,0.426c0.253-0.132,0.124-0.544,0.08-0.822c-0.109-0.694-0.06-1.391-0.08-2.087
		c0.004-0.227-0.01-0.452,0.011-0.676c0.014-0.162-0.015-0.361,0.229-0.399c0.07,1.37,0.146,2.74,0.21,4.111
		c0.007,0.164,0.076,0.394-0.129,0.463c-0.156,0.057-0.324-0.063-0.474-0.161c-0.356-0.239-0.61-0.612-1.042-0.815
		c0.003,0.587,0.198,1.108,0.283,1.647l0,0c0.007,0.602,0.066,1.195,0.209,1.78V65.148z"/>
	<path fill-rule="evenodd" clip-rule="evenodd" fill="#645B5A" d="M63.582,70.346c0.031,0.039,0.063,0.08,0.094,0.119
		c-0.346,0.93-0.934,1.702-1.607,2.411c-0.624,0.653-1.307,1.246-1.92,1.906c-0.666,0.718-1.114,1.593-1.598,2.435
		c-0.919,1.596-1.912,3.144-2.907,4.69c-0.083-0.021-0.137-0.072-0.153-0.155c-0.008-0.127,0.042-0.24,0.11-0.343
		c1.292-1.927,2.445-3.938,3.626-5.931c0.418-0.704,0.993-1.261,1.599-1.781c1.009-0.864,1.81-1.878,2.439-3.039
		C63.337,70.522,63.391,70.362,63.582,70.346z"/>
	<path fill-rule="evenodd" clip-rule="evenodd" fill="#3D3436" d="M55.544,81.796c0.032,0.038,0.065,0.076,0.1,0.111
		c0.003,0.557,0.007,1.11,0.01,1.665c0.069,0.727,0.139,1.451,0.21,2.178c-0.014,0.263,0.188,0.558-0.115,0.776
		c-0.269-0.423-0.19-0.915-0.265-1.377c-0.028-0.182-0.008-0.373-0.072-0.551c-0.16-0.721-0.171-1.451-0.144-2.181
		C55.277,82.18,55.254,81.914,55.544,81.796z"/>
	<path fill-rule="evenodd" clip-rule="evenodd" fill="#6F6768" d="M54.988,101.515c-0.163-0.652-0.071-1.312-0.058-1.969
		c0.041-2.21-0.255-4.391-0.521-6.574c-0.142-1.173-0.303-2.342-0.453-3.514c-0.02-0.151,0.014-0.315-0.096-0.448
		c-0.088-1.387-0.164-2.773-0.527-4.129c-0.1-0.376-0.231-0.506-0.594-0.327c-1.954,0.961-4.051,1.573-5.997,2.563
		c-0.814,0.414-1.716,0.647-2.576,0.975c-0.339,0.129-0.639,0.366-1.01,0.414c-0.109,0.014-0.257,0.08-0.31-0.082
		c-0.041-0.124,0.079-0.183,0.16-0.238c0.702-0.485,1.391-0.991,2.111-1.445c2.799-1.761,5.606-3.51,8.417-5.254
		c0.568-0.354,0.949-0.872,1.304-1.406c0.609-0.912,1.142-1.869,1.525-2.9c0.086,0.019,0.143,0.069,0.171,0.151
		c0.034,0.388-0.157,0.719-0.32,1.035c-0.515,0.993-1.075,1.958-1.818,2.804c-0.569,0.648-1.369,0.955-2.07,1.403
		c-2.616,1.672-5.321,3.203-7.856,5.001c-0.228,0.161-0.486,0.273-0.727,0.414c0.538-0.294,1.086-0.555,1.689-0.709
		c0.936-0.236,1.753-0.778,2.646-1.124c1.498-0.578,2.975-1.21,4.437-1.869c0.743-0.335,0.897-0.229,1.175,0.557
		c0.172,0.481,0.214,0.986,0.313,1.483c0.152,1.946,0.404,3.88,0.691,5.811c0.319,2.139,0.399,4.302,0.629,6.448
		c0.078,0.726-0.017,1.494-0.093,2.239C55.129,101.046,55.211,101.334,54.988,101.515z"/>
	<path fill-rule="evenodd" clip-rule="evenodd" fill="#3E3737" d="M56.469,77.286c-0.034-0.036-0.07-0.072-0.104-0.107
		c0.229-0.329,0.445-0.666,0.683-0.986c0.236-0.318,0.139-0.495-0.172-0.707c-1.845-1.254-3.65-2.569-5.318-4.055
		c-2.043-1.818-3.843-3.845-5.321-6.155c-0.687-1.07-1.423-2.109-1.914-3.295c0.029-0.064,0.058-0.131,0.088-0.197
		c0.225,0.051,0.263,0.259,0.351,0.422c1.311,2.411,2.845,4.662,4.698,6.698c2.003,2.206,4.334,4.017,6.762,5.716
		c0.357,0.251,0.685,0.54,1.045,0.783c0.236,0.158,0.293,0.389,0.185,0.644C57.239,76.549,56.937,76.983,56.469,77.286z"/>
	<g>
		<path fill-rule="evenodd" clip-rule="evenodd" fill="#FFFFFF" d="M44.227,25.026c1.505-1.602,3.504-2.224,5.54-2.709
			c1.896-0.453,3.544,0.303,5.004,1.417c2.398,1.827,4.107,4.19,5.214,6.998c0.641,1.618,1.417,3.181,1.912,4.856
			c-0.024,0.083-0.069,0.141-0.172,0.111c-0.401-0.658-0.572-1.41-0.876-2.11c-1.003-2.329-1.803-4.766-3.436-6.776
			c-1.024-1.263-2.118-2.457-3.521-3.308c-0.717-0.435-1.508-0.721-2.318-0.94c-0.523-0.143-1.036,0.029-1.549,0.116
			c-1.881,0.271-3.65,0.85-5.089,2.129c-2.732,2.43-4.718,5.345-5.328,9.018c-0.37,2.22-0.516,4.464-0.308,6.725
			c0.087,0.952,0.191,1.913,0.134,2.874c-0.014,0.227-0.014,0.455,0.064,0.674c0.067,0.368,0.024,0.749,0.122,1.115
			c0.045,0.986,0.305,1.937,0.492,2.9c0.297,1.725,0.842,3.383,1.397,5.034c0.752,2.249,1.467,4.513,2.274,6.742
			c0.22,0.606,0.552,1.168,0.691,1.806c0,0.122-0.049,0.218-0.153,0.282c-0.521-0.893-0.851-1.864-1.177-2.836
			c-0.696-2.081-1.388-4.161-2.065-6.249c-0.855-2.635-1.63-5.295-1.832-8.073c-0.175-2.38-0.453-4.762-0.361-7.149
			c0.082-2.067,0.246-4.128,0.969-6.11c0.771-2.113,1.883-3.992,3.478-5.583C43.644,25.673,43.93,25.345,44.227,25.026z"/>
		<path fill-rule="evenodd" clip-rule="evenodd" fill="#FFFFFF" d="M64.946,58.121c-0.188,0.376-0.007,0.786-0.112,1.172
			c-0.385-0.253-0.196-0.641-0.233-0.977c0.051-2.488-0.067-4.979-0.148-7.464c-0.064-1.927-0.45-3.836-0.621-5.76
			c-0.145-1.621-0.57-3.181-0.854-4.771c-0.019-0.121-0.039-0.24-0.031-0.363c0.026-0.125,0.035-0.266,0.208-0.282
			c0.442,1.753,0.884,3.502,0.999,5.324c0.096,1.49,0.372,2.965,0.52,4.455c0.128,1.27,0.115,2.54,0.188,3.811
			C64.95,54.882,64.978,56.5,64.946,58.121z"/>
		<path fill-rule="evenodd" clip-rule="evenodd" fill="#FFFFFF" d="M63.153,39.676c-0.029,0.075-0.058,0.148-0.087,0.223
			c-0.315-0.103-0.242-0.409-0.337-0.628c-0.222-0.989-0.634-1.922-0.888-2.903c-0.056-0.213-0.193-0.424-0.039-0.65
			c0.031-0.043,0.063-0.085,0.094-0.13C62.317,36.95,62.824,38.285,63.153,39.676z"/>
	</g>
	<path fill-rule="evenodd" clip-rule="evenodd" fill="#696064" d="M55.751,86.504c0.192-0.228,0.021-0.509,0.112-0.752
		c0.181,1.015,0.124,2.047,0.205,3.071c0.185,2.295,0.48,4.577,0.692,6.871c0.192,2.099,0.381,4.198,0.563,6.298
		c0.011,0.115,0.12,0.318-0.101,0.328c-0.166,0.008-0.185-0.198-0.205-0.323c-0.153-0.908-0.275-1.825-0.442-2.731
		c-0.14-0.765-0.33-1.521-0.55-2.28c-0.02,1.673-0.122,3.333-0.582,4.948c-0.102-0.027-0.166-0.091-0.194-0.189
		c0.079-1.077,0.326-2.133,0.383-3.216c0.028-0.574,0.031-1.149,0.057-1.724c0.013-0.216-0.039-0.518,0.243-0.568
		c0.288-0.052,0.354,0.238,0.418,0.449c0.319,1.047,0.425,2.134,0.511,2.693c-0.247-1.29-0.413-3.112-0.573-4.938
		c-0.194-2.221-0.567-4.425-0.614-6.659c-0.002-0.069-0.02-0.138-0.041-0.206c-0.053-0.277-0.06-0.555-0.023-0.836
		C55.63,86.646,55.667,86.562,55.751,86.504z"/>
	<path fill-rule="evenodd" clip-rule="evenodd" fill="#43363B" d="M55.333,101.811c0.037,0.04,0.073,0.081,0.111,0.123
		c0.001,0.341-0.014,0.676-0.247,1.066c-0.167-0.544-0.19-1.015-0.209-1.485c0.082-0.208-0.061-0.453,0.109-0.646
		c0.278,0.271,0.065,0.625,0.153,0.928c0.006,0.012,0.021,0.029,0.034,0.031C55.299,101.829,55.315,101.817,55.333,101.811z"/>
	<path fill-rule="evenodd" clip-rule="evenodd" fill="#F6F6F7" d="M55.723,86.716c0.011,0.273,0.021,0.546,0.031,0.818
		c0.049,0.108-0.018,0.159-0.104,0.192c-0.133,0.048-0.277,0.034-0.414,0.065c-0.979,0.236-1.02,0.195-0.879-0.823
		c0.029-0.202,0.154-0.386,0.148-0.604c-0.223-0.078-0.482,0.048-0.645-0.17c-0.112-0.505-0.217-1.011-0.34-1.511
		c-0.1-0.412-0.301-0.594-0.75-0.366c-2.009,1.008-4.164,1.671-6.178,2.669c-1.048,0.517-2.244,0.686-3.308,1.215
		c0.632-0.429,1.265-0.855,1.895-1.289c2.251-1.553,4.572-3.009,6.961-4.324c2.137-1.179,3.451-2.902,4.289-5.1
		c0.023-0.065,0.026-0.135,0.039-0.202c0.275-0.38,0.563-0.753,0.821-1.145c0.188-0.28,0.161-0.496-0.168-0.726
		c-1.81-1.27-3.62-2.543-5.29-4.003c-3.109-2.721-5.559-5.948-7.422-9.63c-1.243-2.835-2.091-5.813-3.082-8.738
		c-0.538-1.588-1.102-3.186-1.321-4.868c0.037-0.276,0.283-0.412,0.439-0.601c0.164-0.199,0.334-0.092,0.458,0.114
		c-0.077-0.359-0.359-0.666-0.189-1.056c0.083-0.193,0.153-0.394,0.394-0.16c0.165,0.16,0.235,0.049,0.312-0.085
		c0.093-0.16,0.153-0.398,0.403-0.325c0.274,0.082,0.414,0.31,0.445,0.592c0.023,0.222-0.062,0.45,0.023,0.672
		c0.431-0.366,1.121-0.282,1.227,0.291c0.058-0.045,0.075-0.113,0.097-0.18c0.067-0.191,0.032-0.47,0.274-0.527
		c0.269-0.063,0.228,0.249,0.333,0.385c0.189,0.243,0.443,0.245,0.708,0.24c-0.089-0.284-0.091-0.288-0.327-0.203
		c-0.155,0.055-0.227-0.037-0.286-0.149c-0.362-0.679-0.618-1.401-0.833-2.137c-0.066-0.225,0.033-0.451,0.127-0.657
		c0.14-0.298,0.307-0.576,0.351-0.917c0.03-0.227,0.223-0.43,0.484-0.387c0.303,0.047,0.256,0.306,0.255,0.542
		c-0.01,0.883,0.218,1.715,0.61,2.502c0.039,0.08,0.102,0.193,0.177,0.172c0.559-0.157,0.766,0.354,1.127,0.57
		c0.275,0.165,0.239,0.494,0.402,0.715c0.237-0.613,0.32-0.579,0.944-0.396c0.494,0.143,0.971,0.383,1.505,0.398
		c0.487,0.015,0.678,0.495,0.386,0.967c-0.128,0.206-0.32,0.381-0.324,0.644c-0.003,0.217,0.042,0.443,0.278,0.513
		c0.247,0.075,0.316-0.153,0.411-0.313c0.125-0.208,0.125-0.427,0.091-0.659c-0.027-0.175-0.038-0.37,0.19-0.427
		c0.221-0.055,0.303,0.126,0.376,0.286c0.087,0.19,0.197,0.367,0.301,0.552c0.211,0.633,0.018,1.296,0.135,1.934
		c-0.141,1.01,0.091,2.008,0.08,3.016c-0.012,1.396-0.205,2.769-0.387,4.143c-0.018,0.139-0.045,0.274-0.042,0.414
		c0.003,0.065-0.01,0.142,0.066,0.198c0.185-0.067,0.192-0.261,0.271-0.402c0.084-0.146,0.127-0.373,0.344-0.32
		c0.183,0.045,0.236,0.251,0.242,0.429c0.01,0.334,0.095,0.65,0.161,0.975c0.149,0.713,0.292,1.429,0.47,2.135
		c0.014,0.236-0.049,0.449-0.227,0.615c-0.428,0.402-0.506,0.892-0.346,1.431c0.115,0.389-0.086,0.755-0.086,1.093
		c0.689-0.461,0.387-1.047,0.17-1.624c-0.059-0.153-0.098-0.319,0.027-0.443c0.154-0.154,0.289-0.004,0.422,0.067
		c0.141,0.077,0.303,0.081,0.447,0.142c0.281,0.121,0.444,0.517,0.229,0.678c-0.387,0.282-0.129,0.429,0.039,0.628
		c0.031,0.039,0.049,0.09,0.134,0.152c0.034-0.333,0.077-0.636,0.446-0.773c0.221-0.084,0.191-0.302,0.061-0.485
		c-0.104-0.147-0.15-0.279-0.08-0.48c0.373-1.058,0.338-2.135,0.107-3.218c-0.045-0.211-0.23-0.235-0.373-0.327
		c-0.313-0.204-0.307-0.495,0.047-0.601c0.271-0.082,0.18-0.182,0.119-0.326c-0.166-0.395-0.197-0.804-0.152-1.229
		c0.043-0.467-0.218-0.867-0.355-1.291c-0.119-0.374,0.031-0.649,0.381-0.546c0.547,0.163,1.143-0.023,1.66,0.275
		c0.118,0.066,0.183-0.039,0.254-0.118c0.344-0.395,0.688-0.78,0.839-1.302c0.06-0.215,0.22-0.396,0.296-0.618
		c-0.167,0.014-0.157,0.15-0.183,0.243c-0.077,0.279-0.253,0.391-0.538,0.394c-0.302,0.006-0.52-0.113-0.599-0.4
		c-0.087-0.316-0.219-0.562-0.543-0.715c-0.311-0.145-0.212-0.426-0.038-0.613c0.252-0.269,0.296-0.522,0.125-0.848
		c-0.111-0.213-0.101-0.5,0.076-0.639c0.339-0.266,0.269-0.553,0.18-0.887c-0.123-0.454-0.063-0.516,0.412-0.485
		c0.035,0.002,0.071,0.004,0.105,0.016c0.235,0.078,0.569-0.158,0.72,0.143c0.151,0.305-0.229,0.378-0.348,0.571
		c-0.106,0.173-0.209,0.381-0.07,0.536c0.305,0.343,0.58,0.717,0.854,1.046c0.124-0.031,0.151-0.076,0.165-0.127
		c0.063-0.24,0.176-0.449,0.466-0.355c0.269,0.086,0.289,0.317,0.227,0.562c-0.017,0.068-0.047,0.133-0.061,0.201
		c-0.027,0.129-0.014,0.245,0.12,0.31c0.033,0.018,0.073,0.019,0.098-0.003c0.106-0.098-0.004-0.188-0.011-0.283
		c-0.047-0.669-0.172-1.34,0.079-1.999c0.063-0.167,0.122-0.369,0.334-0.344c0.254,0.028,0.186,0.246,0.156,0.415
		c-0.027,0.144,0.001,0.276,0.042,0.411c0.08,0.26,0.131,0.507,0.45,0.155c0.212-0.235,0.483-0.353,0.591,0.122
		c0.026,0.123,0.111,0.165,0.227,0.174c0.475,0.037,0.461,0.337,0.356,0.676c-0.073,0.241-0.212,0.449-0.029,0.733
		c0.137,0.21-0.094,0.351-0.292,0.382c-0.251,0.039-0.542,0.092-0.634-0.272c-0.042-0.17,0.085-0.502-0.145-0.479
		c-0.277,0.026-0.145,0.369-0.161,0.574c-0.045,0.549-0.195,1.096-0.006,1.683c0.517-0.229,1.04-0.438,1.058-1.156
		c0.007-0.206,0.118-0.39,0.218-0.579c0.222-0.425,0.32-0.875,0.123-1.357c-0.142-0.349-0.126-0.719-0.042-1.082
		c0.035-0.14,0.107-0.277,0.268-0.295c0.172-0.02,0.261,0.129,0.274,0.261c0.058,0.586,0.341,1.092,0.541,1.628
		c0.094,0.258-0.014,0.476-0.19,0.667c-0.454,0.49-0.466,0.867-0.034,1.351c0.171,0.19,0.188,0.354-0.003,0.545
		c-0.033,0.034-0.24-0.063-0.11,0.109c0.049,0.059,0.113,0.176,0.205,0.081c0.257-0.259,0.48-0.546,0.773-0.771
		c0.087-0.066,0.048-0.198-0.051-0.269c-0.09-0.064-0.165-0.018-0.229,0.051c-0.048,0.052-0.08,0.114-0.118,0.172
		c-0.089,0.132-0.212,0.199-0.358,0.128c-0.15-0.071-0.158-0.22-0.131-0.362c0.035-0.192,0.12-0.371,0.232-0.522
		c0.295-0.397,0.43-0.83,0.386-1.325c-0.021-0.238,0.021-0.518,0.323-0.48c0.262,0.034,0.487,0.251,0.446,0.556
		c-0.038,0.279-0.031,0.555-0.039,0.834c-0.004,0.105-0.002,0.238,0.134,0.238c0.156,0.002,0.113-0.129,0.106-0.231
		c-0.026-0.449,0.327-0.811,0.763-0.781c0.247,0.017,0.306,0.241,0.237,0.378c-0.399,0.783-0.199,1.635-0.34,2.441
		c-0.064,0.381,0.013,0.61,0.316,0.784c0.363,0.207,0.428,0.484,0.226,0.831c-0.15,0.258-0.127,0.458,0.136,0.617
		c0.031,0.019,0.048,0.054,0.073,0.074c0.299,0.25-0.046,0.749,0.247,0.892c0.311,0.151,0.511,0.311,0.599,0.63
		c0.031,0.323,0.063,0.646,0.093,0.971c0,1.045,0,2.09,0,3.182c-0.527-0.294-0.957-0.819-1.565-1.229
		c-0.039,0.738,0.182,1.382,0.264,2.039c0.178,1.452,0.372,2.901,0.579,4.351c0.052,0.36-0.051,0.58-0.384,0.741
		c-0.26,0.125-0.522,0.268-0.751,0.526c0.438,0.2,0.83-0.07,1.265-0.058c-0.253,0.511-0.544,0.969-0.659,1.5
		c-0.754,1.587-1.942,2.823-3.23,3.974c-0.849,0.76-1.355,1.756-1.899,2.724c-0.91,1.624-1.973,3.147-2.908,4.753
		c-0.259,0.682-0.074,1.383-0.089,2.074c-0.007,0.237,0.056,0.477,0.087,0.715c0.115,0.366-0.024,0.448-0.354,0.313
		c-0.124-0.05-0.234-0.145-0.512-0.115c0.657,0.236,0.981,0.558,0.798,1.215C55.411,86.227,55.65,86.47,55.723,86.716z"/>
	<path fill-rule="evenodd" clip-rule="evenodd" fill="#ECEEF2" d="M55.723,86.716c-0.264-0.289-0.51-0.553-0.316-1.018
		c0.124-0.303-0.24-0.678-0.578-0.668c-0.087,0.003-0.211,0.111-0.232-0.066c-0.015-0.133-0.053-0.292,0.066-0.394
		c0.092-0.08,0.19-0.018,0.282,0.043c0.1,0.066,0.208,0.125,0.31,0.188c0.272,0.16,0.276-0.034,0.288-0.216
		c0.14,0.633,0.151,1.278,0.209,1.919C55.741,86.575,55.73,86.645,55.723,86.716z"/>
	<path fill-rule="evenodd" clip-rule="evenodd" fill="#F6F6F7" d="M39.384,44.089c0.014-0.158,0.077-0.25,0.221-0.363
		c0.47-0.371,0.778-0.875,0.824-1.482c0.024-0.305,0.144-0.449,0.43-0.476c0.384-0.034,0.725-0.279,1.157-0.149
		c0.171,0.051,0.344-0.029,0.433,0.212c0.082,0.221,0.287,0.138,0.453,0.111c0.401-0.068,0.868,0.222,0.97,0.647
		c0.094,0.388-0.214,0.596-0.485,0.713c-0.342,0.15-0.379,0.282-0.176,0.577c0.364,0.524,0.011,1.033-0.073,1.548
		c-0.018,0.085-0.116,0.086-0.17,0.041c-0.109-0.097-0.296-0.16-0.242-0.355c0.028-0.109,0.16-0.189,0.08-0.339
		c-0.188-0.082-0.199,0.136-0.303,0.197c-0.521,0.31-0.589,0.302-0.819-0.25c-0.064-0.162-0.083-0.317-0.296-0.367
		c-0.166-0.037-0.239-0.415-0.443-0.221c-0.218,0.208,0.116,0.278,0.204,0.417c0.193,0.306-0.095,0.364-0.279,0.395
		c-0.28,0.048-0.538,0.055-0.353,0.451c0.036,0.078,0.026,0.177-0.08,0.214c-0.1,0.036-0.163-0.024-0.214-0.102
		c-0.174-0.263-0.376-0.462-0.726-0.287C39.373,44.854,39.377,44.473,39.384,44.089z"/>
	<path fill-rule="evenodd" clip-rule="evenodd" fill="#FFFFFF" d="M60.025,42.624c-0.051,0.281,0.235,0.488,0.186,0.809
		c-0.341-0.099-0.306-0.448-0.489-0.622c-0.275-0.266-0.457-0.59-0.585-0.948c-0.007-0.107,0.012-0.199,0.132-0.232
		c0.047-0.023,0.131,0.043,0.117,0.024c-0.184-0.264-0.26-0.583-0.438-0.85c-0.336-0.599-0.752-1.128-1.274-1.582
		c-0.407-0.352-0.826-0.713-0.888-1.282c-0.06-0.036-0.091-0.038-0.125-0.022c-0.164,0.082-0.211,0.392-0.439,0.305
		c-0.262-0.1-0.198-0.383-0.201-0.601c-0.027-2.136-0.252-4.26-0.887-6.298c-0.724-2.316-1.97-4.282-4.106-5.624
		c-1.303-0.821-2.444-0.409-3.44,0.632c-0.657,0.684-0.813,1.561-0.919,2.453c-0.071,0.598-0.146,1.195-0.386,1.709
		c1.01-3.245,4.732-3.546,6.642-1.987c0.703,0.572,1.178,1.302,1.4,2.213c0.348,1.401,0.39,2.833,0.463,4.259
		c0.031,0.616-0.046,1.251-0.06,1.88c-0.026,1.224,0.091,2.438,0.269,3.648c0.102,0.708,0.058,0.778-0.654,0.896
		c-0.168,0.027-0.209,0.11-0.182,0.247c0.037,0.187,0.008,0.384,0.105,0.601c0.379-0.187,0.604-0.504,0.778-0.856
		c0.227-0.458,0.36-0.946,0.449-1.447c0.04-0.223,0.074-0.448,0.133-0.667c0.048-0.189,0.11-0.39,0.32-0.446
		c0.234-0.063,0.334,0.146,0.438,0.298c0.392,0.558,0.679,1.181,1.087,1.726c0.074,0.099,0.156,0.191,0.245,0.279
		c0.014,0.117,0.064,0.266-0.088,0.317c-0.157,0.052-0.188-0.114-0.249-0.208c-0.443-0.664-0.88-1.329-1.355-2.049
		c-0.144,0.58-0.256,1.111-0.405,1.631c-0.222,0.778-0.623,1.444-1.342,1.861c-0.184,0.105-0.238,0.228-0.231,0.417
		c0.011,0.244-0.003,0.489,0.014,0.732c0.041,0.578,0.07,1.146-0.706,1.344c0.096,0.064,0.117,0.089,0.131,0.087
		c0.207-0.031,0.419-0.322,0.609-0.072c0.163,0.211,0.133,0.5-0.01,0.739c-0.293,0.492-0.6,0.977-0.902,1.463
		c-0.5,0.809-0.682,1.702-0.705,2.639c0.055,0.569,0.041,1.129-0.205,1.66c-0.207,0.749-0.097,1.522-0.138,2.281
		c-0.039,0.752,0.495,1.387,0.558,2.18c-0.373-0.226-0.32-0.67-0.594-0.924c-0.231,0.326-0.061,0.648,0.037,0.938
		c0.225,0.653,0.476,1.299,0.756,1.932c0.411,0.924,0.559,1.912,0.703,2.92c-0.324-0.61-0.648-1.22-0.988-1.863
		c0.039,0.776,0.083,1.527,0.113,2.276c0.006,0.208,0.06,0.505-0.334,0.345c-0.268-1.205-0.584-2.397-0.72-3.774
		c-0.183,0.403-0.293,0.681-0.434,0.94c-0.077,0.141-0.136,0.38-0.354,0.309c-0.188-0.063-0.089-0.279-0.073-0.415
		c0.09-0.794,0.216-1.587,0.3-2.381c0.143-1.373,0.132-2.748,0.059-4.126c-0.023-0.397-0.04-0.8,0.057-1.195
		c-0.027-0.339-0.119-0.681,0.055-1.008c0.289,0.138,0.213,0.416,0.213,0.639c-0.004,2.535,0.23,5.08-0.332,7.588
		c0.116-0.306,0.169-0.753,0.535-0.739c0.381,0.016,0.303,0.479,0.354,0.77c0.15,0.834,0.286,1.671,0.372,2.289
		c-0.113-0.605-0.188-1.441-0.231-2.28c-0.014-0.229-0.154-0.628,0.364-0.456c0.296,0.544,0.336,1.181,0.61,1.731
		c0.049,0.056,0.076-0.065,0.035-0.01c-0.012,0.016-0.025,0.005-0.043-0.028c-0.272-0.523-0.302-1.129-0.57-1.654
		c-0.428-0.629-0.615-1.356-0.836-2.069c-0.021-0.065-0.027-0.14-0.014-0.208c0.209-1.144,0.007-2.301,0.105-3.449
		c0.1-1.146,0.278-2.282,0.463-3.414c0.129-0.817,0.524-1.548,0.977-2.238c0.113-0.175,0.246-0.338,0.346-0.522
		c0.213-0.395,0.193-0.439-0.246-0.458c-0.148-0.007-0.287-0.024-0.354-0.17c-0.076-0.175,0.035-0.327,0.157-0.405
		c0.546-0.345,0.56-0.868,0.54-1.425c-0.014-0.294-0.115-0.451-0.416-0.494c-0.257-0.038-0.508-0.126-0.766-0.162
		c-1.34-0.194-2.265-1.01-3.059-2.021c-0.228-0.294-0.387-0.566-0.777-0.145c-0.22,0.236-0.511,0.08-0.603-0.286
		c-0.085-0.34-0.043-0.689-0.017-1.037c0.001-0.068-0.089,0.007-0.017-0.001c0.024-0.003,0.019,0.012,0.015,0.05
		c-0.019,0.2-0.134,0.333-0.318,0.362c-0.213,0.034-0.296-0.148-0.373-0.305c-0.152-0.31-0.176-0.668-0.329-0.989
		c-0.235,0.105-0.225,0.335-0.341,0.477c-0.032,0.048-0.075,0.08-0.129,0.099c-0.227-0.097-0.24-0.284-0.211-0.49
		c0.194-0.297,0.29-0.774,0.722-0.732c0.454,0.042,0.409,0.542,0.532,0.87c0.04,0.11,0.043,0.238,0.134,0.328
		c0.624-0.342,0.759-0.256,0.782,0.475c0.005,0.174-0.022,0.348,0.032,0.557c0.156-0.14,0.249-0.371,0.48-0.346
		c0.252,0.029,0.386,0.225,0.513,0.414c0.403,0.596,0.894,1.127,1.423,1.597c0.619,0.548,1.445,0.667,2.238,0.812
		c0.331,0.06,0.48-0.109,0.477-0.444c-0.003-0.281-0.037-0.557-0.057-0.836c-0.029-0.419,0.14-0.606,0.541-0.54
		c0.332,0.055,0.368-0.087,0.328-0.339c-0.08-0.518-0.109-1.04-0.183-1.558c-0.173-1.202-0.013-2.402-0.02-3.602
		c-0.007-1.625-0.11-3.248-0.559-4.821c-0.446-1.577-2.179-2.59-3.905-2.423c-1.885,0.183-3.249,1.825-3.322,3.468
		c-0.035,0.732-0.077,1.462-0.085,2.195c-0.002,0.223,0.034,0.456-0.103,0.66c-0.442-0.086-0.056-0.412-0.194-0.558
		c-0.031,0.211,0.036,0.488-0.17,0.693c-0.136-0.576-0.164-1.146-0.129-1.749c0.091-1.565,0.351-3.107,0.553-4.657
		c0.144-1.093,0.73-1.939,1.581-2.613c0.62-0.414,1.26-0.714,2.044-0.578c0.28,0.048,0.533,0.101,0.782,0.247
		c3.191,1.883,4.645,4.832,5.143,8.361c0.188,1.327,0.445,2.646,0.441,4.005c0.517-0.087,0.923-0.617,1.553-0.426
		c-0.078,0.21-0.241,0.262-0.398,0.324c-0.517,0.198-0.603,0.55-0.236,0.978c0.113,0.131,0.229,0.265,0.366,0.371
		c1.105,0.86,1.703,2.046,2.156,3.327C59.896,42.303,59.962,42.463,60.025,42.624z"/>
	<path fill-rule="evenodd" clip-rule="evenodd" fill="#FFFFFF" d="M51.325,50.149c-0.177,0.315-0.03,0.665-0.107,0.99
		c-0.151-0.67,0.035-1.375-0.196-2.039c0.037-0.871-0.367-1.561-0.868-2.227c-1.475-1.967-2.46-4.18-3.227-6.502
		c-0.112-0.346-0.276-0.675-0.416-1.012c0.007-0.078,0.016-0.155,0.085-0.208l0.042-0.015c0.322,0.105,0.339,0.418,0.43,0.666
		c0.369,1.015,0.77,2.018,1.146,3.03c0.576,1.541,1.5,2.871,2.452,4.177c0.629,0.863,0.671,1.842,0.799,2.819
		C51.479,49.947,51.441,50.072,51.325,50.149z"/>
	<path fill-rule="evenodd" clip-rule="evenodd" fill="#FFFFFF" d="M46.597,39.151c0.021,0.089-0.007,0.159-0.085,0.208
		c-0.275-0.157-0.398-0.375-0.398-0.71c-0.003-0.917-0.208-1.831-0.11-2.755c0.073-0.383,0.073-0.766,0-1.149
		c-0.007-0.064-0.012-0.131-0.019-0.195c0.021-0.298,0.228-0.572,0.094-0.895c0.216,0.23-0.002,0.561,0.216,0.778
		c0.187,0.155,0.172,0.371,0.153,0.576c-0.094,1.069-0.132,2.136,0.041,3.203c0.027,0.173,0.035,0.346-0.068,0.502
		C46.478,38.86,46.539,39.007,46.597,39.151z"/>
	<path fill-rule="evenodd" clip-rule="evenodd" fill="#F6F6F7" d="M39.966,46.073c0.14-0.11,0.269-0.262,0.447-0.126
		c0.043,0.034,0.081,0.159,0.057,0.181C40.3,46.299,40.137,46.128,39.966,46.073z"/>
	<path fill-rule="evenodd" clip-rule="evenodd" fill="#FFFFFF" d="M46.002,34.745c0.168,0.383,0.126,0.766,0,1.149
		C46.002,35.511,46.002,35.128,46.002,34.745z"/>
	<path fill-rule="evenodd" clip-rule="evenodd" fill="#F6F6F7" d="M45.856,45.666c0.084,0.014,0.122,0.072,0.089,0.144
		c-0.034,0.073-0.088,0.179-0.146,0.189c-0.112,0.017-0.116-0.098-0.109-0.182C45.7,45.722,45.745,45.656,45.856,45.666z"/>
	<path fill-rule="evenodd" clip-rule="evenodd" fill="#F6F6F7" d="M52.271,51.698c-0.041-0.566,0.044-1.118,0.205-1.66
		c0.432-0.049,0.344-0.275,0.143-0.559c0.667,0.059,0.109,0.799,0.629,0.913c0.123-0.241,0.246-0.511,0.149-0.828
		c-0.04-0.13-0.063-0.275,0.087-0.301c0.213-0.039,0.137,0.133,0.123,0.243c-0.08,0.608,0.397,0.908,0.721,1.289
		c0.07,0.085,0.264,0.085,0.205,0.252c-0.049,0.137-0.164,0.243-0.316,0.24c-0.258-0.007-0.4,0.118-0.543,0.323
		c-0.158,0.224-0.102,0.387,0.092,0.467c0.518,0.209,0.346,0.761,0.586,1.1c0.021,0.029-0.004,0.137-0.023,0.14
		c-0.62,0.146-0.477,0.756-0.704,1.14c-0.03,0.055-0.083,0.099-0.14,0.166c-0.193-0.186-0.193-0.511-0.542-0.525
		c-0.198-0.011-0.108-0.208-0.056-0.336c0.139-0.337,0.24-0.696,0.427-1.006c0.208-0.344-0.058-0.458-0.241-0.563
		c-0.26-0.148-0.248,0.138-0.324,0.271c-0.076,0.138-0.04,0.405-0.291,0.355c-0.219-0.044-0.169-0.272-0.176-0.44
		C52.274,52.151,52.274,51.925,52.271,51.698z"/>
	<path fill-rule="evenodd" clip-rule="evenodd" fill="#FFFFFF" d="M57.717,41.139c-0.116-0.012-0.252,0.009-0.276-0.158
		c-0.014-0.239-0.205-0.405-0.248-0.628c-0.044-0.211-0.195-0.475,0.073-0.609c0.28-0.14,0.391,0.136,0.509,0.322
		c0.252,0.399,0.407,0.848,0.611,1.271c0.586,1.214,1.118,2.454,1.502,3.557c-0.332-0.793-0.522-1.829-0.966-2.778
		c-0.086-0.184-0.184-0.385-0.041-0.594c0.103-0.068,0.212-0.075,0.327-0.038c0.057,0.051,0.182,0.085,0.043,0.183
		c-0.019,0.064-0.035,0.129-0.056,0.194c0.133,0.391,0.424,0.724,0.421,1.163c0.191,0.883,0.604,1.706,0.707,2.613
		c0.015,0.136,0.08,0.272-0.004,0.409c-0.215,0.06-0.212-0.142-0.265-0.244c-0.665-1.267-1.183-2.6-1.752-3.91
		c-0.137-0.307-0.35-0.559-0.477-0.862c-0.017-0.033,0.027-0.151-0.072-0.09C57.715,40.963,57.727,41.069,57.717,41.139z"/>
	<path fill-rule="evenodd" clip-rule="evenodd" fill="#F6F6F7" d="M56.994,50.472c0.118,0.014,0.206,0.096,0.164,0.123
		c-0.266,0.167-0.302,0.551-0.589,0.656c-0.137,0.049-0.307-0.148-0.282-0.306C56.348,50.521,56.879,50.788,56.994,50.472z"/>
	<path fill-rule="evenodd" clip-rule="evenodd" fill="#F6F6F7" d="M63.516,52.778c0.222,0.038,0.274,0.218,0.283,0.413
		c0.007,0.184-0.099,0.297-0.283,0.299c-0.269,0.001-0.229-0.207-0.229-0.373C63.285,52.964,63.268,52.792,63.516,52.778z"/>
	<path fill-rule="evenodd" clip-rule="evenodd" fill="#F6F6F7" d="M55.194,54.009c0.014,0.188-0.097,0.22-0.233,0.222
		c-0.16,0.002-0.314-0.059-0.23-0.235c0.081-0.176-0.033-0.521,0.238-0.504C55.201,53.505,55.07,53.859,55.194,54.009z"/>
	<path fill-rule="evenodd" clip-rule="evenodd" fill="#F6F6F7" d="M59.255,49.008c-0.032-0.111-0.019-0.202,0.094-0.2
		c0.197,0.003,0.313,0.132,0.352,0.312c0.028,0.131-0.038,0.257-0.181,0.254C59.278,49.369,59.332,49.126,59.255,49.008z"/>
	<path fill-rule="evenodd" clip-rule="evenodd" fill="#F6F6F7" d="M60.841,48.426c0,0.274,0,0.492,0,0.737
		C60.472,48.824,60.472,48.776,60.841,48.426z"/>
	<path fill-rule="evenodd" clip-rule="evenodd" fill="#F6F6F7" d="M61.388,49.563c-0.021,0.124-0.058,0.229-0.194,0.199
		c-0.153-0.038-0.305-0.107-0.298-0.3c0.005-0.135,0.119-0.153,0.226-0.145C61.28,49.33,61.367,49.421,61.388,49.563z"/>
	<path fill-rule="evenodd" clip-rule="evenodd" fill="#FFFFFF" d="M59.616,43.022c-0.136-0.388-0.365-0.745-0.421-1.163
		c0.246,0.279,0.404,0.606,0.526,0.952C59.623,42.85,59.641,42.945,59.616,43.022z"/>
	<path fill-rule="evenodd" clip-rule="evenodd" fill="#F6F6F7" d="M56.823,47.656c-0.003-0.102,0.052-0.177,0.141-0.19
		c0.153-0.021,0.216,0.087,0.232,0.218c0.011,0.099,0.021,0.234-0.133,0.217C56.939,47.885,56.861,47.777,56.823,47.656z"/>
	<path fill-rule="evenodd" clip-rule="evenodd" fill="#F6F6F7" d="M57.307,49.72c0.147,0.221,0.138,0.38,0.032,0.529
		c-0.045,0.062-0.133,0.061-0.169-0.013C57.081,50.056,57.206,49.92,57.307,49.72z"/>
	<path fill-rule="evenodd" clip-rule="evenodd" fill="#F6F6F7" d="M54.205,54.907c0.052-0.08,0.055-0.209,0.188-0.209
		c0.092,0,0.164,0.065,0.15,0.161c-0.014,0.124-0.133,0.147-0.226,0.174C54.236,55.055,54.201,54.991,54.205,54.907z"/>
	<path fill-rule="evenodd" clip-rule="evenodd" fill="#F6F6F7" d="M57.591,49.456c-0.218-0.229-0.191-0.364-0.098-0.528
		C57.71,49.053,57.592,49.211,57.591,49.456z"/>
	<path fill-rule="evenodd" clip-rule="evenodd" fill="#F6F6F7" d="M53.186,57.027c0.098,0.032,0.135,0.108,0.127,0.198
		c-0.011,0.099-0.075,0.151-0.18,0.126c-0.078-0.02-0.107-0.079-0.101-0.155C53.041,57.104,53.084,57.037,53.186,57.027z"/>
	<path fill-rule="evenodd" clip-rule="evenodd" fill="#EBEDF0" d="M52.602,58.003c0.373,0.535,0.484,1.16,0.602,1.783
		c-0.432-0.511-0.481-1.157-0.611-1.774L52.602,58.003z"/>
	<path fill-rule="evenodd" clip-rule="evenodd" fill="#FFFFFF" d="M58.997,41.026c0.099-0.037,0.078-0.13,0.099-0.206
		c0.249,0.366,0.392,0.776,0.47,1.228c-0.105-0.127-0.21-0.256-0.314-0.383c-0.019-0.038-0.039-0.074-0.057-0.109
		C59.062,41.404,58.888,41.268,58.997,41.026z"/>
	<path fill-rule="evenodd" clip-rule="evenodd" fill="#FFFFFF" d="M58.997,41.026c0.064,0.178,0.131,0.353,0.197,0.53
		c-0.102,0-0.205,0-0.31,0c-0.135-0.257-0.282-0.509-0.275-0.833C58.867,40.695,58.874,40.934,58.997,41.026z"/>
	<path fill-rule="evenodd" clip-rule="evenodd" fill="#ECEEF2" d="M54.333,86.179c0.103,0.01,0.213,0.053,0.304,0.02
		c0.105-0.035,0.207-0.2,0.311-0.049c0.104,0.151,0.016,0.326-0.055,0.452c-0.186,0.332-0.037,0.721-0.129,1.069
		c-0.033,0.119,0.107,0.154,0.166,0.112c0.259-0.191,0.56-0.172,0.827-0.31c0.075,1.106,0.141,2.213,0.229,3.316
		c0.22,2.75,0.45,5.496,0.671,8.243c0.017,0.194,0.001,0.395,0.001,0.579c-0.183-1.066-0.366-2.149-0.558-3.231
		c-0.03-0.167-0.017-0.471-0.182-0.441c-0.174,0.034-0.126,0.333-0.121,0.525c0.021,1.284-0.038,2.561-0.215,3.826
		c-0.046,0.328-0.094,0.661-0.144,0.99c-0.01,0.047-0.007,0.113-0.03,0.14c-0.082,0.085-0.07-0.053-0.073-0.072
		c-0.028-0.327-0.05-0.653-0.072-0.979c0.155-1.871-0.072-3.722-0.186-5.575c-0.158-2.583-0.523-5.135-0.729-7.71
		C54.325,86.785,54.338,86.479,54.333,86.179z"/>
</g>
</svg>
