<?xml version="1.0" encoding="utf-8"?>
<!-- Generator: Adobe Illustrator 16.0.0, SVG Export Plug-In . SVG Version: 6.00 Build 0)  -->
<!DOCTYPE svg PUBLIC "-//W3C//DTD SVG 1.1//EN" "http://www.w3.org/Graphics/SVG/1.1/DTD/svg11.dtd">
<svg version="1.1" id="Layer_1" xmlns="http://www.w3.org/2000/svg" xmlns:xlink="http://www.w3.org/1999/xlink" x="0px" y="0px"
	 width="100px" height="100px" viewBox="0 0 100 100" enable-background="new 0 0 100 100" xml:space="preserve">
<g opacity="0.5">
	<path fill-rule="evenodd" clip-rule="evenodd" fill="#494042" d="M80.249,53.88c0.015,0.485,0.095,0.962,0.191,1.437
		c0.007,0.078,0.007,0.16,0.016,0.237c0.104,0.994,0.104,0.994-0.638,1.622c0.316-0.053,0.602-0.103,0.964-0.166
		c-0.295,0.608-0.563,1.164-0.832,1.72c-0.1,0.002-0.125-0.068-0.145-0.144c-0.002-0.396,0.247-0.713,0.353-1.08
		c-0.198-0.124-0.383,0.025-0.564-0.009c-0.116-0.02-0.222-0.051-0.272-0.165c-0.061-0.134,0.044-0.203,0.119-0.283
		c0.031-0.034,0.068-0.071,0.109-0.088c0.639-0.263,0.708-0.736,0.591-1.358c-0.28-1.498-0.372-3.027-0.635-4.531
		c-0.04-0.237-0.19-0.555,0.066-0.708c0.263-0.155,0.434,0.174,0.644,0.292c0.025,0.017,0.048,0.043,0.074,0.061
		c0.207,0.138,0.395,0.497,0.601,0.388c0.23-0.12,0.113-0.496,0.073-0.75c-0.1-0.633-0.055-1.269-0.073-1.903
		c0.004-0.207-0.009-0.413,0.01-0.617c0.013-0.147-0.013-0.329,0.209-0.364c0.063,1.25,0.133,2.5,0.191,3.751
		c0.006,0.149,0.069,0.359-0.118,0.422c-0.143,0.052-0.295-0.057-0.432-0.146c-0.325-0.219-0.557-0.559-0.95-0.744
		c0.002,0.535,0.181,1.011,0.258,1.503l0,0c0.007,0.549,0.061,1.091,0.19,1.624V53.88z"/>
	<path fill-rule="evenodd" clip-rule="evenodd" fill="#645B5A" d="M79.864,58.621c0.028,0.036,0.058,0.073,0.086,0.108
		c-0.315,0.849-0.852,1.554-1.467,2.2c-0.569,0.596-1.191,1.137-1.751,1.739c-0.608,0.654-1.017,1.453-1.458,2.221
		c-0.838,1.456-1.744,2.868-2.652,4.279c-0.075-0.02-0.124-0.066-0.14-0.142c-0.007-0.116,0.038-0.22,0.101-0.313
		c1.179-1.757,2.23-3.592,3.308-5.41c0.382-0.643,0.906-1.15,1.459-1.625c0.92-0.788,1.65-1.713,2.226-2.772
		C79.641,58.782,79.689,58.637,79.864,58.621z"/>
	<path fill-rule="evenodd" clip-rule="evenodd" fill="#3D3436" d="M72.531,69.067c0.029,0.034,0.06,0.069,0.091,0.102
		c0.003,0.508,0.007,1.013,0.009,1.519c0.063,0.663,0.127,1.324,0.192,1.987c-0.013,0.239,0.172,0.509-0.105,0.708
		c-0.245-0.386-0.174-0.835-0.241-1.256c-0.026-0.166-0.008-0.341-0.066-0.503c-0.146-0.657-0.156-1.324-0.131-1.989
		C72.288,69.417,72.267,69.175,72.531,69.067z"/>
	<path fill-rule="evenodd" clip-rule="evenodd" fill="#6F6768" d="M72.024,87.057c-0.148-0.596-0.064-1.197-0.053-1.797
		c0.038-2.016-0.232-4.005-0.475-5.997c-0.129-1.07-0.276-2.137-0.413-3.205c-0.019-0.139,0.013-0.288-0.088-0.409
		c-0.08-1.266-0.149-2.53-0.48-3.767c-0.091-0.344-0.212-0.462-0.542-0.299c-1.782,0.877-3.695,1.436-5.471,2.338
		c-0.742,0.378-1.565,0.591-2.351,0.889c-0.309,0.118-0.583,0.334-0.921,0.378c-0.1,0.013-0.234,0.073-0.282-0.074
		c-0.038-0.113,0.071-0.167,0.146-0.218c0.64-0.442,1.269-0.904,1.927-1.318c2.553-1.606,5.113-3.202,7.678-4.793
		c0.519-0.323,0.865-0.796,1.189-1.283c0.556-0.832,1.041-1.705,1.392-2.646c0.078,0.018,0.13,0.063,0.155,0.139
		c0.031,0.354-0.144,0.655-0.292,0.944c-0.47,0.906-0.98,1.786-1.659,2.558c-0.52,0.592-1.249,0.871-1.889,1.28
		c-2.386,1.525-4.854,2.922-7.167,4.563c-0.208,0.146-0.443,0.249-0.663,0.378c0.491-0.269,0.992-0.507,1.54-0.647
		c0.854-0.215,1.601-0.71,2.415-1.025c1.366-0.527,2.714-1.104,4.047-1.705c0.679-0.306,0.819-0.208,1.072,0.508
		c0.156,0.439,0.195,0.9,0.285,1.354c0.139,1.775,0.368,3.539,0.631,5.301c0.291,1.951,0.364,3.925,0.573,5.883
		c0.071,0.662-0.015,1.363-0.085,2.043C72.152,86.629,72.228,86.892,72.024,87.057z"/>
	<path fill-rule="evenodd" clip-rule="evenodd" fill="#3E3737" d="M73.375,64.953c-0.031-0.033-0.064-0.066-0.095-0.099
		c0.209-0.3,0.406-0.607,0.622-0.899c0.216-0.29,0.127-0.451-0.156-0.645c-1.684-1.145-3.33-2.345-4.853-3.699
		c-1.863-1.659-3.506-3.508-4.854-5.615c-0.627-0.977-1.299-1.925-1.746-3.006c0.026-0.06,0.053-0.12,0.08-0.181
		c0.205,0.047,0.24,0.236,0.321,0.385c1.195,2.2,2.595,4.254,4.285,6.111c1.828,2.013,3.954,3.664,6.169,5.214
		c0.326,0.229,0.625,0.493,0.953,0.715c0.216,0.145,0.268,0.354,0.169,0.587C74.078,64.28,73.802,64.677,73.375,64.953z"/>
	<g>
		<path fill-rule="evenodd" clip-rule="evenodd" fill="#FFFFFF" d="M62.207,17.277c1.373-1.461,3.196-2.028,5.054-2.471
			c1.729-0.413,3.233,0.277,4.565,1.292c2.188,1.667,3.747,3.823,4.756,6.384c0.585,1.476,1.293,2.902,1.745,4.43
			c-0.022,0.076-0.063,0.129-0.157,0.101c-0.366-0.6-0.522-1.286-0.799-1.925c-0.915-2.125-1.645-4.348-3.135-6.182
			c-0.935-1.152-1.932-2.241-3.211-3.017c-0.654-0.396-1.376-0.658-2.115-0.858c-0.478-0.13-0.944,0.026-1.413,0.106
			c-1.716,0.247-3.33,0.775-4.643,1.942c-2.493,2.217-4.304,4.876-4.86,8.227c-0.337,2.025-0.47,4.072-0.281,6.135
			c0.079,0.868,0.175,1.745,0.123,2.622c-0.013,0.207-0.013,0.415,0.059,0.615c0.061,0.336,0.021,0.683,0.11,1.018
			c0.041,0.899,0.278,1.767,0.449,2.646c0.271,1.573,0.769,3.086,1.274,4.592c0.686,2.053,1.338,4.117,2.074,6.151
			c0.201,0.554,0.504,1.065,0.63,1.647c0,0.111-0.044,0.198-0.139,0.258c-0.476-0.814-0.776-1.701-1.074-2.588
			c-0.635-1.898-1.266-3.796-1.884-5.701c-0.78-2.403-1.486-4.83-1.671-7.364c-0.16-2.171-0.413-4.344-0.33-6.522
			c0.075-1.885,0.225-3.766,0.884-5.574c0.704-1.928,1.719-3.642,3.174-5.093C61.676,17.867,61.936,17.567,62.207,17.277z"/>
		<path fill-rule="evenodd" clip-rule="evenodd" fill="#FFFFFF" d="M81.109,47.469c-0.171,0.343-0.007,0.718-0.103,1.069
			c-0.352-0.23-0.18-0.585-0.213-0.891c0.046-2.271-0.062-4.542-0.136-6.81c-0.059-1.758-0.41-3.5-0.566-5.255
			c-0.132-1.479-0.521-2.902-0.779-4.353c-0.018-0.11-0.036-0.219-0.029-0.331c0.024-0.114,0.032-0.242,0.19-0.257
			c0.403,1.6,0.806,3.195,0.911,4.857c0.087,1.359,0.34,2.706,0.474,4.064c0.117,1.158,0.105,2.317,0.172,3.476
			C81.112,44.514,81.138,45.99,81.109,47.469z"/>
		<path fill-rule="evenodd" clip-rule="evenodd" fill="#FFFFFF" d="M79.474,30.642c-0.027,0.068-0.053,0.135-0.079,0.204
			c-0.288-0.094-0.222-0.374-0.308-0.573c-0.202-0.903-0.578-1.753-0.81-2.649c-0.051-0.194-0.177-0.387-0.036-0.593
			c0.028-0.04,0.057-0.078,0.086-0.119C78.711,28.155,79.173,29.373,79.474,30.642z"/>
	</g>
	<path fill-rule="evenodd" clip-rule="evenodd" fill="#696064" d="M72.721,73.362c0.175-0.208,0.019-0.464,0.103-0.687
		c0.164,0.926,0.112,1.868,0.187,2.803c0.169,2.093,0.438,4.175,0.632,6.268c0.176,1.915,0.348,3.83,0.514,5.746
		c0.01,0.104,0.11,0.29-0.092,0.299c-0.151,0.008-0.168-0.181-0.187-0.295c-0.14-0.828-0.251-1.665-0.403-2.491
		c-0.128-0.698-0.302-1.389-0.502-2.081c-0.018,1.526-0.111,3.041-0.531,4.515c-0.093-0.025-0.151-0.083-0.177-0.173
		c0.072-0.982,0.297-1.945,0.349-2.934c0.026-0.524,0.028-1.049,0.052-1.572c0.012-0.197-0.035-0.473,0.222-0.519
		c0.263-0.048,0.323,0.217,0.382,0.409c0.291,0.955,0.388,1.947,0.466,2.457c-0.226-1.177-0.377-2.839-0.523-4.504
		c-0.177-2.026-0.518-4.037-0.56-6.075c-0.002-0.063-0.019-0.126-0.038-0.188c-0.048-0.254-0.054-0.507-0.021-0.763
		C72.609,73.492,72.644,73.415,72.721,73.362z"/>
	<path fill-rule="evenodd" clip-rule="evenodd" fill="#43363B" d="M72.339,87.326c0.034,0.036,0.067,0.074,0.102,0.112
		c0.001,0.311-0.013,0.616-0.226,0.973c-0.152-0.496-0.174-0.926-0.19-1.354c0.075-0.19-0.055-0.414,0.1-0.589
		c0.254,0.246,0.06,0.569,0.141,0.846c0.005,0.011,0.019,0.027,0.03,0.028C72.308,87.343,72.323,87.332,72.339,87.326z"/>
	<path fill-rule="evenodd" clip-rule="evenodd" fill="#F6F6F7" d="M72.694,73.556c0.01,0.249,0.019,0.498,0.028,0.746
		c0.045,0.1-0.016,0.146-0.094,0.176c-0.121,0.044-0.253,0.031-0.378,0.06c-0.894,0.216-0.931,0.179-0.802-0.751
		c0.026-0.185,0.141-0.352,0.135-0.552c-0.203-0.071-0.439,0.044-0.588-0.154c-0.103-0.461-0.197-0.923-0.31-1.379
		c-0.091-0.376-0.274-0.541-0.685-0.334c-1.832,0.92-3.799,1.524-5.636,2.436c-0.957,0.471-2.047,0.625-3.019,1.107
		c0.577-0.391,1.154-0.78,1.729-1.176c2.054-1.416,4.171-2.745,6.351-3.944c1.949-1.076,3.148-2.648,3.913-4.652
		c0.021-0.06,0.023-0.123,0.035-0.185c0.251-0.347,0.515-0.688,0.749-1.044c0.172-0.256,0.147-0.453-0.153-0.662
		c-1.65-1.158-3.302-2.32-4.825-3.652c-2.837-2.481-5.071-5.426-6.771-8.785c-1.133-2.586-1.907-5.302-2.812-7.972
		c-0.49-1.449-1.005-2.906-1.204-4.441c0.033-0.252,0.257-0.376,0.399-0.548c0.15-0.182,0.305-0.084,0.418,0.104
		c-0.069-0.328-0.328-0.607-0.172-0.963c0.076-0.176,0.14-0.359,0.359-0.146c0.15,0.146,0.214,0.045,0.284-0.078
		c0.084-0.146,0.14-0.363,0.367-0.296c0.25,0.074,0.377,0.283,0.406,0.541c0.021,0.202-0.057,0.41,0.021,0.613
		c0.394-0.333,1.022-0.257,1.119,0.266c0.053-0.041,0.069-0.104,0.089-0.164c0.061-0.175,0.029-0.429,0.25-0.48
		c0.245-0.057,0.208,0.227,0.304,0.351c0.173,0.222,0.404,0.224,0.646,0.219c-0.082-0.259-0.083-0.263-0.298-0.185
		c-0.142,0.05-0.207-0.034-0.262-0.136c-0.33-0.62-0.563-1.279-0.759-1.95c-0.061-0.205,0.029-0.412,0.116-0.6
		c0.128-0.272,0.279-0.525,0.32-0.837c0.027-0.207,0.203-0.392,0.441-0.353c0.276,0.043,0.234,0.279,0.232,0.494
		c-0.009,0.806,0.199,1.564,0.556,2.283c0.036,0.073,0.094,0.176,0.162,0.157c0.51-0.144,0.698,0.323,1.028,0.521
		c0.251,0.15,0.218,0.451,0.367,0.652c0.216-0.559,0.291-0.528,0.86-0.362c0.451,0.13,0.887,0.35,1.374,0.364
		c0.443,0.013,0.618,0.452,0.351,0.882c-0.116,0.188-0.292,0.348-0.295,0.587c-0.002,0.198,0.039,0.405,0.254,0.468
		c0.225,0.069,0.289-0.14,0.375-0.286c0.113-0.19,0.113-0.39,0.083-0.602c-0.024-0.159-0.035-0.337,0.173-0.389
		c0.202-0.05,0.277,0.115,0.344,0.261c0.08,0.174,0.181,0.335,0.274,0.503c0.192,0.578,0.017,1.182,0.123,1.764
		c-0.128,0.921,0.083,1.831,0.073,2.751c-0.011,1.273-0.187,2.525-0.353,3.779c-0.017,0.127-0.041,0.25-0.038,0.378
		c0.003,0.06-0.01,0.129,0.061,0.181c0.168-0.062,0.175-0.238,0.246-0.367c0.077-0.134,0.116-0.34,0.313-0.292
		c0.167,0.041,0.216,0.229,0.222,0.391c0.009,0.305,0.086,0.594,0.146,0.89c0.137,0.65,0.267,1.304,0.429,1.947
		c0.013,0.216-0.045,0.41-0.207,0.562c-0.39,0.367-0.461,0.813-0.315,1.305c0.105,0.354-0.078,0.689-0.078,0.997
		c0.629-0.42,0.353-0.955,0.155-1.481c-0.054-0.14-0.089-0.291,0.024-0.404c0.142-0.141,0.264-0.004,0.386,0.062
		c0.128,0.07,0.275,0.074,0.407,0.129c0.257,0.11,0.405,0.472,0.209,0.618c-0.353,0.258-0.118,0.392,0.035,0.573
		c0.029,0.035,0.045,0.082,0.122,0.139c0.031-0.304,0.07-0.58,0.407-0.705c0.201-0.077,0.175-0.275,0.056-0.443
		c-0.095-0.134-0.138-0.255-0.073-0.438c0.34-0.965,0.309-1.947,0.098-2.936c-0.041-0.192-0.21-0.214-0.34-0.298
		c-0.286-0.187-0.28-0.452,0.043-0.548c0.246-0.075,0.163-0.166,0.108-0.298c-0.151-0.359-0.18-0.733-0.139-1.121
		c0.039-0.426-0.199-0.791-0.324-1.178c-0.109-0.341,0.028-0.592,0.347-0.498c0.499,0.149,1.043-0.021,1.515,0.252
		c0.108,0.061,0.167-0.036,0.231-0.107c0.314-0.361,0.629-0.713,0.766-1.188c0.055-0.196,0.2-0.36,0.271-0.563
		c-0.152,0.012-0.144,0.137-0.167,0.222c-0.07,0.255-0.23,0.356-0.491,0.358c-0.275,0.006-0.474-0.104-0.546-0.365
		c-0.079-0.288-0.199-0.512-0.495-0.652c-0.283-0.131-0.193-0.388-0.035-0.559c0.23-0.245,0.271-0.477,0.114-0.773
		c-0.102-0.194-0.092-0.456,0.069-0.583c0.31-0.243,0.245-0.504,0.164-0.809c-0.112-0.415-0.058-0.471,0.376-0.443
		c0.032,0.002,0.065,0.003,0.096,0.014c0.215,0.071,0.52-0.144,0.657,0.13c0.138,0.278-0.21,0.345-0.317,0.521
		c-0.097,0.158-0.19,0.348-0.064,0.489c0.278,0.313,0.529,0.654,0.779,0.954c0.113-0.029,0.138-0.07,0.15-0.116
		c0.057-0.219,0.16-0.41,0.425-0.325c0.245,0.079,0.264,0.29,0.207,0.513c-0.016,0.062-0.043,0.121-0.056,0.183
		c-0.024,0.118-0.013,0.224,0.109,0.283c0.03,0.016,0.067,0.018,0.09-0.003c0.097-0.089-0.004-0.171-0.01-0.258
		c-0.043-0.61-0.157-1.222,0.071-1.824c0.059-0.152,0.111-0.336,0.305-0.313c0.232,0.026,0.17,0.225,0.143,0.379
		c-0.024,0.131,0.001,0.252,0.039,0.375c0.072,0.237,0.119,0.462,0.41,0.142c0.193-0.215,0.441-0.322,0.539,0.111
		c0.024,0.112,0.102,0.15,0.207,0.159c0.433,0.034,0.42,0.307,0.325,0.616c-0.067,0.22-0.193,0.41-0.027,0.669
		c0.125,0.191-0.085,0.32-0.266,0.348c-0.229,0.036-0.495,0.084-0.578-0.248c-0.039-0.155,0.077-0.458-0.132-0.438
		c-0.254,0.024-0.132,0.337-0.147,0.523c-0.041,0.501-0.178,1-0.005,1.535c0.471-0.209,0.948-0.398,0.965-1.055
		c0.006-0.188,0.107-0.355,0.198-0.528c0.202-0.387,0.292-0.798,0.112-1.238c-0.129-0.318-0.115-0.656-0.038-0.987
		c0.032-0.127,0.098-0.253,0.244-0.269c0.156-0.018,0.237,0.117,0.25,0.238c0.053,0.534,0.311,0.996,0.493,1.485
		c0.086,0.235-0.012,0.435-0.173,0.608c-0.415,0.447-0.426,0.791-0.031,1.232c0.155,0.174,0.172,0.322-0.003,0.497
		c-0.03,0.031-0.22-0.058-0.101,0.1c0.044,0.054,0.104,0.161,0.187,0.074c0.234-0.236,0.438-0.498,0.706-0.704
		c0.079-0.061,0.044-0.181-0.047-0.244c-0.081-0.06-0.15-0.017-0.208,0.045c-0.044,0.048-0.073,0.105-0.107,0.158
		c-0.081,0.119-0.193,0.182-0.327,0.116c-0.138-0.065-0.145-0.2-0.119-0.331c0.031-0.176,0.109-0.338,0.212-0.477
		c0.269-0.362,0.392-0.757,0.352-1.208c-0.02-0.218,0.019-0.472,0.295-0.438c0.238,0.031,0.444,0.229,0.407,0.507
		c-0.035,0.255-0.028,0.505-0.036,0.761c-0.003,0.096-0.001,0.217,0.122,0.217c0.143,0.002,0.104-0.117,0.098-0.211
		c-0.024-0.41,0.298-0.739,0.695-0.713c0.226,0.015,0.279,0.22,0.217,0.345c-0.364,0.715-0.182,1.491-0.31,2.228
		c-0.06,0.348,0.011,0.557,0.288,0.715c0.331,0.189,0.391,0.442,0.206,0.759c-0.138,0.235-0.116,0.417,0.124,0.563
		c0.028,0.017,0.043,0.049,0.066,0.067c0.272,0.228-0.042,0.683,0.226,0.813c0.283,0.138,0.466,0.283,0.546,0.574
		c0.028,0.295,0.058,0.59,0.085,0.886c0,0.953,0,1.906,0,2.902c-0.481-0.268-0.873-0.747-1.429-1.121
		c-0.035,0.674,0.166,1.261,0.241,1.86c0.162,1.325,0.339,2.647,0.528,3.97c0.047,0.328-0.047,0.528-0.351,0.676
		c-0.236,0.114-0.477,0.244-0.685,0.48c0.399,0.183,0.757-0.064,1.153-0.053c-0.23,0.466-0.496,0.884-0.602,1.368
		c-0.688,1.448-1.771,2.576-2.947,3.625c-0.773,0.693-1.236,1.603-1.732,2.485c-0.83,1.481-1.8,2.871-2.653,4.336
		c-0.236,0.622-0.067,1.262-0.081,1.892c-0.006,0.217,0.051,0.436,0.079,0.652c0.105,0.334-0.021,0.409-0.323,0.286
		c-0.113-0.045-0.214-0.132-0.467-0.105c0.6,0.216,0.896,0.509,0.729,1.108C72.41,73.109,72.629,73.331,72.694,73.556z"/>
	<path fill-rule="evenodd" clip-rule="evenodd" fill="#ECEEF2" d="M72.694,73.556c-0.24-0.264-0.465-0.505-0.288-0.929
		c0.112-0.276-0.22-0.618-0.528-0.609c-0.079,0.003-0.192,0.102-0.212-0.061c-0.013-0.121-0.048-0.267,0.061-0.358
		c0.084-0.073,0.174-0.017,0.258,0.039c0.091,0.061,0.189,0.113,0.282,0.171c0.249,0.146,0.252-0.031,0.263-0.197
		c0.128,0.577,0.139,1.166,0.191,1.751C72.711,73.427,72.701,73.49,72.694,73.556z"/>
	<path fill-rule="evenodd" clip-rule="evenodd" fill="#F6F6F7" d="M57.79,34.668c0.012-0.145,0.069-0.229,0.201-0.331
		c0.429-0.338,0.71-0.798,0.752-1.353c0.021-0.278,0.13-0.409,0.392-0.434c0.351-0.031,0.661-0.255,1.055-0.136
		c0.157,0.046,0.314-0.027,0.396,0.194c0.074,0.202,0.262,0.126,0.414,0.101c0.365-0.063,0.791,0.202,0.885,0.59
		c0.086,0.354-0.195,0.543-0.443,0.651c-0.312,0.137-0.346,0.258-0.16,0.527c0.331,0.478,0.01,0.942-0.067,1.412
		c-0.017,0.077-0.105,0.079-0.155,0.037c-0.1-0.088-0.271-0.146-0.221-0.324c0.026-0.099,0.146-0.173,0.072-0.309
		c-0.171-0.075-0.182,0.124-0.275,0.18c-0.477,0.283-0.538,0.275-0.748-0.229c-0.059-0.147-0.075-0.289-0.27-0.334
		c-0.151-0.033-0.218-0.378-0.404-0.202c-0.198,0.19,0.105,0.253,0.187,0.381c0.176,0.279-0.087,0.333-0.255,0.36
		c-0.255,0.044-0.49,0.05-0.322,0.412c0.034,0.071,0.024,0.162-0.073,0.196c-0.091,0.033-0.147-0.022-0.195-0.093
		c-0.158-0.24-0.343-0.422-0.661-0.262C57.779,35.365,57.782,35.018,57.79,34.668z"/>
	<path fill-rule="evenodd" clip-rule="evenodd" fill="#FFFFFF" d="M76.62,33.331c-0.047,0.256,0.215,0.446,0.169,0.738
		c-0.311-0.09-0.279-0.409-0.446-0.567c-0.251-0.243-0.417-0.539-0.533-0.865c-0.007-0.098,0.01-0.182,0.12-0.211
		c0.042-0.021,0.119,0.039,0.106,0.022c-0.167-0.24-0.237-0.531-0.399-0.775c-0.306-0.546-0.686-1.029-1.162-1.443
		c-0.372-0.321-0.754-0.65-0.81-1.169c-0.055-0.033-0.083-0.034-0.114-0.021c-0.149,0.075-0.192,0.358-0.401,0.279
		c-0.238-0.091-0.181-0.35-0.184-0.548c-0.024-1.949-0.229-3.886-0.809-5.746c-0.66-2.113-1.797-3.907-3.746-5.13
		c-1.188-0.749-2.229-0.373-3.138,0.577c-0.601,0.624-0.743,1.423-0.84,2.238c-0.064,0.545-0.133,1.09-0.353,1.56
		c0.921-2.96,4.317-3.235,6.061-1.813c0.641,0.521,1.074,1.188,1.277,2.019c0.317,1.279,0.355,2.584,0.422,3.885
		c0.028,0.562-0.042,1.142-0.054,1.715c-0.024,1.116,0.082,2.224,0.244,3.328c0.093,0.646,0.053,0.709-0.597,0.817
		c-0.153,0.025-0.19,0.101-0.166,0.226c0.034,0.17,0.008,0.351,0.097,0.548c0.346-0.17,0.551-0.459,0.71-0.781
		c0.207-0.418,0.329-0.863,0.41-1.32c0.036-0.204,0.067-0.409,0.121-0.608c0.044-0.172,0.101-0.355,0.292-0.407
		c0.214-0.058,0.305,0.134,0.4,0.272c0.357,0.509,0.619,1.078,0.991,1.575c0.067,0.09,0.143,0.174,0.224,0.255
		c0.013,0.107,0.059,0.242-0.08,0.289c-0.144,0.048-0.172-0.104-0.228-0.19c-0.404-0.605-0.803-1.212-1.236-1.87
		c-0.131,0.529-0.233,1.014-0.37,1.488c-0.202,0.71-0.568,1.317-1.224,1.698c-0.168,0.096-0.218,0.208-0.211,0.38
		c0.01,0.222-0.003,0.446,0.013,0.668c0.037,0.527,0.063,1.045-0.645,1.226c0.087,0.059,0.106,0.081,0.119,0.079
		c0.189-0.028,0.383-0.293,0.556-0.065c0.149,0.192,0.122,0.457-0.009,0.674c-0.267,0.449-0.547,0.892-0.823,1.334
		c-0.456,0.738-0.621,1.553-0.643,2.407c0.05,0.52,0.037,1.03-0.188,1.515c-0.188,0.684-0.088,1.389-0.125,2.081
		c-0.036,0.687,0.451,1.265,0.508,1.989c-0.34-0.207-0.292-0.611-0.541-0.844c-0.211,0.298-0.056,0.592,0.033,0.855
		c0.205,0.596,0.435,1.186,0.69,1.763c0.375,0.843,0.509,1.744,0.641,2.663c-0.296-0.557-0.591-1.112-0.901-1.699
		c0.036,0.708,0.076,1.394,0.104,2.076c0.005,0.19,0.055,0.461-0.305,0.314c-0.244-1.099-0.533-2.187-0.656-3.443
		c-0.167,0.368-0.268,0.621-0.396,0.858c-0.071,0.128-0.124,0.347-0.324,0.281c-0.172-0.058-0.081-0.255-0.066-0.379
		c0.083-0.724,0.197-1.447,0.273-2.171c0.13-1.254,0.12-2.508,0.054-3.765c-0.021-0.363-0.037-0.73,0.052-1.091
		c-0.025-0.309-0.109-0.621,0.05-0.919c0.264,0.125,0.194,0.379,0.194,0.583c-0.004,2.313,0.21,4.634-0.304,6.922
		c0.106-0.279,0.154-0.688,0.488-0.675c0.348,0.015,0.276,0.438,0.323,0.702c0.137,0.761,0.261,1.524,0.339,2.089
		c-0.104-0.553-0.171-1.315-0.211-2.081c-0.013-0.208-0.141-0.572,0.332-0.416c0.271,0.496,0.307,1.077,0.557,1.58
		c0.045,0.051,0.07-0.06,0.032-0.009c-0.011,0.014-0.022,0.004-0.039-0.026c-0.248-0.478-0.275-1.029-0.521-1.509
		c-0.39-0.574-0.561-1.237-0.762-1.888c-0.02-0.061-0.025-0.128-0.013-0.189c0.19-1.044,0.006-2.1,0.096-3.147
		c0.091-1.046,0.254-2.082,0.423-3.114c0.117-0.746,0.479-1.412,0.891-2.042c0.104-0.16,0.225-0.309,0.315-0.477
		c0.194-0.36,0.177-0.4-0.225-0.417c-0.136-0.006-0.262-0.022-0.322-0.156c-0.069-0.159,0.032-0.298,0.144-0.37
		c0.498-0.315,0.51-0.792,0.492-1.3c-0.013-0.269-0.105-0.412-0.379-0.45c-0.234-0.035-0.464-0.115-0.699-0.147
		c-1.222-0.177-2.066-0.921-2.79-1.844c-0.208-0.269-0.353-0.517-0.709-0.132c-0.2,0.215-0.467,0.073-0.55-0.261
		c-0.077-0.311-0.039-0.629-0.016-0.946c0.001-0.062-0.082,0.006-0.016-0.001c0.021-0.003,0.017,0.011,0.015,0.045
		c-0.019,0.183-0.123,0.304-0.291,0.331c-0.194,0.031-0.271-0.135-0.34-0.278c-0.14-0.283-0.161-0.609-0.301-0.903
		c-0.215,0.096-0.205,0.306-0.311,0.435c-0.028,0.043-0.067,0.072-0.118,0.09c-0.206-0.089-0.219-0.259-0.192-0.447
		c0.177-0.271,0.264-0.706,0.658-0.668c0.414,0.039,0.374,0.494,0.486,0.794c0.035,0.101,0.039,0.217,0.121,0.299
		c0.569-0.312,0.693-0.234,0.714,0.434c0.004,0.159-0.021,0.317,0.029,0.508c0.143-0.127,0.226-0.339,0.438-0.315
		c0.229,0.026,0.351,0.205,0.467,0.377c0.368,0.543,0.815,1.028,1.299,1.457c0.564,0.5,1.318,0.608,2.042,0.741
		c0.302,0.055,0.438-0.1,0.435-0.405c-0.003-0.257-0.034-0.508-0.052-0.763c-0.026-0.382,0.127-0.553,0.493-0.492
		c0.304,0.05,0.336-0.08,0.3-0.309c-0.073-0.472-0.1-0.949-0.167-1.422c-0.157-1.096-0.012-2.191-0.018-3.286
		c-0.006-1.483-0.101-2.963-0.51-4.398c-0.407-1.438-1.987-2.363-3.563-2.21c-1.72,0.167-2.963,1.665-3.031,3.164
		c-0.031,0.667-0.069,1.334-0.077,2.002c-0.002,0.204,0.031,0.417-0.094,0.603c-0.403-0.079-0.051-0.375-0.176-0.509
		c-0.029,0.192,0.031,0.445-0.155,0.633c-0.125-0.525-0.149-1.046-0.118-1.596c0.082-1.428,0.319-2.835,0.504-4.249
		c0.131-0.997,0.666-1.769,1.442-2.384c0.564-0.378,1.149-0.651,1.864-0.527c0.256,0.044,0.485,0.092,0.714,0.226
		c2.91,1.718,4.237,4.408,4.691,7.628c0.171,1.21,0.406,2.414,0.402,3.654c0.472-0.08,0.843-0.563,1.417-0.389
		c-0.071,0.191-0.22,0.239-0.363,0.295c-0.472,0.181-0.55,0.501-0.216,0.892c0.104,0.12,0.209,0.242,0.334,0.339
		c1.009,0.784,1.554,1.867,1.967,3.035C76.501,33.039,76.562,33.185,76.62,33.331z"/>
	<path fill-rule="evenodd" clip-rule="evenodd" fill="#FFFFFF" d="M68.683,40.196c-0.161,0.288-0.027,0.607-0.098,0.903
		c-0.139-0.611,0.032-1.254-0.18-1.86c0.034-0.795-0.335-1.424-0.792-2.032c-1.345-1.795-2.244-3.813-2.943-5.932
		c-0.103-0.316-0.252-0.616-0.379-0.923c0.007-0.071,0.015-0.142,0.078-0.19l0.038-0.013c0.294,0.096,0.311,0.381,0.392,0.607
		c0.337,0.926,0.702,1.841,1.046,2.765c0.524,1.406,1.368,2.619,2.236,3.811c0.574,0.788,0.612,1.68,0.729,2.572
		C68.822,40.012,68.789,40.126,68.683,40.196z"/>
	<path fill-rule="evenodd" clip-rule="evenodd" fill="#FFFFFF" d="M64.369,30.163c0.019,0.081-0.007,0.145-0.078,0.19
		c-0.251-0.143-0.363-0.342-0.363-0.648c-0.003-0.837-0.189-1.67-0.102-2.514c0.068-0.349,0.068-0.699,0-1.048
		c-0.005-0.059-0.011-0.12-0.016-0.178c0.018-0.272,0.207-0.522,0.085-0.816c0.196,0.21-0.001,0.512,0.196,0.71
		c0.171,0.142,0.158,0.339,0.141,0.525c-0.085,0.976-0.121,1.949,0.037,2.922c0.024,0.158,0.031,0.315-0.062,0.458
		C64.261,29.897,64.316,30.031,64.369,30.163z"/>
	<path fill-rule="evenodd" clip-rule="evenodd" fill="#F6F6F7" d="M58.32,36.478c0.128-0.101,0.245-0.239,0.407-0.115
		c0.04,0.031,0.074,0.145,0.053,0.166C58.625,36.684,58.476,36.528,58.32,36.478z"/>
	<path fill-rule="evenodd" clip-rule="evenodd" fill="#FFFFFF" d="M63.826,26.144c0.153,0.349,0.116,0.699,0,1.048
		C63.826,26.842,63.826,26.493,63.826,26.144z"/>
	<path fill-rule="evenodd" clip-rule="evenodd" fill="#F6F6F7" d="M63.693,36.106c0.078,0.012,0.111,0.066,0.081,0.131
		c-0.03,0.067-0.08,0.163-0.133,0.172c-0.103,0.016-0.105-0.089-0.099-0.166C63.55,36.158,63.592,36.097,63.693,36.106z"/>
	<path fill-rule="evenodd" clip-rule="evenodd" fill="#F6F6F7" d="M69.546,41.609c-0.037-0.517,0.04-1.02,0.188-1.515
		c0.394-0.044,0.313-0.251,0.13-0.509c0.608,0.053,0.1,0.729,0.573,0.833c0.112-0.22,0.225-0.466,0.137-0.756
		c-0.036-0.118-0.058-0.251,0.079-0.274c0.194-0.036,0.125,0.122,0.112,0.222c-0.073,0.555,0.362,0.829,0.657,1.176
		c0.064,0.078,0.241,0.078,0.188,0.23c-0.045,0.125-0.149,0.222-0.289,0.219c-0.234-0.006-0.365,0.108-0.495,0.295
		c-0.145,0.204-0.093,0.353,0.084,0.426c0.472,0.19,0.315,0.694,0.534,1.003c0.02,0.027-0.003,0.125-0.021,0.127
		c-0.565,0.135-0.435,0.689-0.642,1.041c-0.028,0.049-0.076,0.09-0.128,0.15c-0.176-0.169-0.176-0.466-0.494-0.479
		c-0.181-0.01-0.099-0.19-0.051-0.307c0.126-0.308,0.219-0.635,0.39-0.918c0.189-0.313-0.053-0.418-0.221-0.514
		c-0.236-0.136-0.227,0.125-0.296,0.246c-0.069,0.126-0.036,0.37-0.266,0.324c-0.199-0.039-0.153-0.248-0.16-0.401
		C69.549,42.023,69.549,41.816,69.546,41.609z"/>
	<path fill-rule="evenodd" clip-rule="evenodd" fill="#FFFFFF" d="M74.514,31.976c-0.106-0.011-0.229,0.008-0.252-0.145
		c-0.013-0.218-0.188-0.37-0.227-0.573c-0.04-0.192-0.178-0.433,0.067-0.556c0.255-0.127,0.355,0.124,0.464,0.293
		c0.229,0.364,0.371,0.774,0.558,1.16c0.534,1.107,1.021,2.239,1.37,3.245c-0.303-0.724-0.477-1.668-0.881-2.535
		c-0.078-0.167-0.168-0.352-0.038-0.542c0.094-0.062,0.193-0.068,0.299-0.034c0.052,0.047,0.166,0.078,0.039,0.167
		c-0.017,0.059-0.032,0.118-0.051,0.177c0.121,0.356,0.387,0.66,0.384,1.061c0.175,0.806,0.552,1.556,0.646,2.384
		c0.014,0.125,0.073,0.249-0.004,0.374c-0.195,0.054-0.193-0.13-0.241-0.222c-0.606-1.156-1.079-2.372-1.599-3.567
		c-0.124-0.28-0.318-0.51-0.435-0.786c-0.015-0.03,0.025-0.138-0.065-0.083C74.512,31.816,74.522,31.913,74.514,31.976z"/>
	<path fill-rule="evenodd" clip-rule="evenodd" fill="#F6F6F7" d="M73.854,40.49c0.107,0.013,0.188,0.087,0.149,0.112
		c-0.242,0.152-0.275,0.502-0.537,0.599c-0.125,0.045-0.279-0.135-0.258-0.279C73.265,40.536,73.749,40.779,73.854,40.49z"/>
	<path fill-rule="evenodd" clip-rule="evenodd" fill="#F6F6F7" d="M79.804,42.595c0.202,0.034,0.251,0.198,0.259,0.377
		c0.006,0.167-0.09,0.271-0.259,0.272c-0.245,0.001-0.208-0.189-0.208-0.34C79.594,42.764,79.577,42.607,79.804,42.595z"/>
	<path fill-rule="evenodd" clip-rule="evenodd" fill="#F6F6F7" d="M72.213,43.717c0.012,0.172-0.089,0.201-0.213,0.203
		c-0.146,0.002-0.287-0.054-0.211-0.215c0.074-0.16-0.03-0.475,0.218-0.46C72.219,43.258,72.1,43.581,72.213,43.717z"/>
	<path fill-rule="evenodd" clip-rule="evenodd" fill="#F6F6F7" d="M75.917,39.155c-0.029-0.102-0.017-0.184,0.085-0.183
		c0.181,0.003,0.285,0.121,0.321,0.284c0.025,0.12-0.035,0.234-0.165,0.232C75.938,39.484,75.987,39.263,75.917,39.155z"/>
	<path fill-rule="evenodd" clip-rule="evenodd" fill="#F6F6F7" d="M77.363,38.624c0,0.25,0,0.449,0,0.673
		C77.027,38.987,77.027,38.944,77.363,38.624z"/>
	<path fill-rule="evenodd" clip-rule="evenodd" fill="#F6F6F7" d="M77.862,39.662c-0.019,0.113-0.052,0.209-0.177,0.182
		c-0.14-0.035-0.278-0.098-0.271-0.273c0.004-0.123,0.108-0.14,0.205-0.132C77.765,39.449,77.844,39.532,77.862,39.662z"/>
	<path fill-rule="evenodd" clip-rule="evenodd" fill="#FFFFFF" d="M76.246,33.694c-0.123-0.354-0.333-0.68-0.384-1.061
		c0.225,0.254,0.369,0.553,0.48,0.868C76.253,33.537,76.269,33.624,76.246,33.694z"/>
	<path fill-rule="evenodd" clip-rule="evenodd" fill="#F6F6F7" d="M73.698,37.922c-0.002-0.093,0.048-0.161,0.129-0.174
		c0.14-0.019,0.196,0.08,0.212,0.199c0.01,0.09,0.019,0.214-0.121,0.198C73.805,38.13,73.733,38.032,73.698,37.922z"/>
	<path fill-rule="evenodd" clip-rule="evenodd" fill="#F6F6F7" d="M74.14,39.805c0.135,0.201,0.126,0.346,0.029,0.482
		c-0.041,0.056-0.121,0.056-0.154-0.011C73.934,40.111,74.048,39.987,74.14,39.805z"/>
	<path fill-rule="evenodd" clip-rule="evenodd" fill="#F6F6F7" d="M71.31,44.537c0.048-0.073,0.051-0.191,0.172-0.191
		c0.083,0,0.149,0.061,0.137,0.147c-0.013,0.113-0.121,0.135-0.206,0.159C71.339,44.672,71.307,44.613,71.31,44.537z"/>
	<path fill-rule="evenodd" clip-rule="evenodd" fill="#F6F6F7" d="M74.398,39.564c-0.198-0.208-0.174-0.333-0.089-0.482
		C74.508,39.196,74.399,39.34,74.398,39.564z"/>
	<path fill-rule="evenodd" clip-rule="evenodd" fill="#F6F6F7" d="M70.38,46.471c0.089,0.03,0.123,0.1,0.116,0.182
		c-0.01,0.09-0.069,0.138-0.164,0.114c-0.071-0.018-0.099-0.072-0.092-0.142C70.248,46.541,70.287,46.48,70.38,46.471z"/>
	<path fill-rule="evenodd" clip-rule="evenodd" fill="#EBEDF0" d="M69.847,47.361c0.341,0.488,0.442,1.059,0.549,1.627
		c-0.394-0.467-0.438-1.056-0.558-1.619L69.847,47.361z"/>
	<path fill-rule="evenodd" clip-rule="evenodd" fill="#FFFFFF" d="M75.682,31.873c0.09-0.033,0.071-0.119,0.09-0.188
		c0.228,0.334,0.357,0.708,0.429,1.12c-0.097-0.116-0.191-0.233-0.287-0.35c-0.017-0.034-0.035-0.067-0.052-0.1
		C75.74,32.218,75.582,32.094,75.682,31.873z"/>
	<path fill-rule="evenodd" clip-rule="evenodd" fill="#FFFFFF" d="M75.682,31.873c0.059,0.162,0.119,0.322,0.18,0.483
		c-0.093,0-0.187,0-0.282,0c-0.123-0.234-0.258-0.464-0.251-0.759C75.563,31.571,75.569,31.79,75.682,31.873z"/>
	<path fill-rule="evenodd" clip-rule="evenodd" fill="#ECEEF2" d="M71.427,73.065c0.094,0.009,0.194,0.048,0.277,0.018
		c0.096-0.032,0.188-0.183,0.283-0.044c0.095,0.138,0.014,0.297-0.05,0.412c-0.17,0.303-0.034,0.657-0.118,0.976
		c-0.03,0.108,0.099,0.141,0.151,0.103c0.236-0.175,0.511-0.157,0.755-0.282c0.068,1.009,0.128,2.019,0.209,3.025
		c0.201,2.509,0.411,5.014,0.612,7.521c0.016,0.177,0.001,0.359,0.001,0.528c-0.166-0.974-0.334-1.961-0.509-2.948
		c-0.027-0.152-0.015-0.43-0.165-0.403c-0.159,0.031-0.115,0.304-0.111,0.479c0.02,1.172-0.034,2.336-0.195,3.491
		c-0.042,0.299-0.086,0.603-0.131,0.903c-0.01,0.042-0.007,0.103-0.028,0.127c-0.074,0.077-0.063-0.048-0.066-0.065
		c-0.026-0.299-0.046-0.597-0.066-0.894c0.142-1.706-0.065-3.395-0.169-5.086c-0.145-2.356-0.478-4.685-0.665-7.033
		C71.42,73.619,71.432,73.339,71.427,73.065z"/>
</g>
</svg>
